<svg xmlns="http://www.w3.org/2000/svg" xmlns:svg="http://www.w3.org/2000/svg" id="svg3998" width="1056" height="816" version="1.1"><defs id="defs4000"><marker style="overflow:visible" id="EmptyTriangleInM" orient="auto" refX="0" refY="0"><path style="fill-rule:evenodd;fill:#fff;stroke:#000;stroke-width:1pt" id="path9727" d="M 5.77,0.0 L -2.88,5.0 L -2.88,-5.0 L 5.77,0.0 z" transform="scale(-0.4) translate(-4.5,0)"/></marker><marker style="overflow:visible" id="EmptyTriangleInL" orient="auto" refX="0" refY="0"><path style="fill-rule:evenodd;fill:#fff;stroke:#000;stroke-width:1pt" id="path9724" d="M 5.77,0.0 L -2.88,5.0 L -2.88,-5.0 L 5.77,0.0 z" transform="scale(-0.8) translate(-6,0)"/></marker><marker style="overflow:visible" id="TriangleInL" orient="auto" refX="0" refY="0"><path style="fill-rule:evenodd;stroke:#000;stroke-width:1pt" id="path9706" d="M 5.77,0.0 L -2.88,5.0 L -2.88,-5.0 L 5.77,0.0 z" transform="scale(-0.8)"/></marker><marker style="overflow:visible" id="EmptyTriangleOutM" orient="auto" refX="0" refY="0"><path style="fill-rule:evenodd;fill:#fff;stroke:#000;stroke-width:1pt" id="path9736" d="M 5.77,0.0 L -2.88,5.0 L -2.88,-5.0 L 5.77,0.0 z" transform="scale(0.4) translate(-4.5,0)"/></marker><marker style="overflow:visible" id="Arrow1Sstart" orient="auto" refX="0" refY="0"><path style="fill-rule:evenodd;stroke:#000;stroke-width:1pt" id="path7360" d="M 0.0,0.0 L 5.0,-5.0 L -12.5,0.0 L 5.0,5.0 L 0.0,0.0 z" transform="scale(0.2) translate(6,0)"/></marker><marker style="overflow:visible" id="Arrow1Send" orient="auto" refX="0" refY="0"><path style="fill-rule:evenodd;stroke:#000;stroke-width:1pt" id="path7363" d="M 0.0,0.0 L 5.0,-5.0 L -12.5,0.0 L 5.0,5.0 L 0.0,0.0 z" transform="scale(0.2) rotate(180) translate(6,0)"/></marker><marker style="overflow:visible" id="Arrow2Mstart" orient="auto" refX="0" refY="0"><path style="fill-rule:evenodd;stroke-width:.625;stroke-linejoin:round" id="path7372" d="M 8.7185878,4.0337352 L -2.2072895,0.016013256 L 8.7185884,-4.0017078 C 6.9730900,-1.6296469 6.9831476,1.6157441 8.7185878,4.0337352 z" transform="scale(0.6) translate(0,0)"/></marker><marker style="overflow:visible" id="Arrow1Mend" orient="auto" refX="0" refY="0"><path style="fill-rule:evenodd;stroke:#000;stroke-width:1pt" id="path7357" d="M 0.0,0.0 L 5.0,-5.0 L -12.5,0.0 L 5.0,5.0 L 0.0,0.0 z" transform="scale(0.4) rotate(180) translate(10,0)"/></marker><marker style="overflow:visible" id="Arrow1Lend" orient="auto" refX="0" refY="0"><path style="fill-rule:evenodd;stroke:#000;stroke-width:1pt" id="path7351" d="M 0.0,0.0 L 5.0,-5.0 L -12.5,0.0 L 5.0,5.0 L 0.0,0.0 z" transform="scale(0.8) rotate(180) translate(12.5,0)"/></marker><marker style="overflow:visible" id="Arrow1Sstart-2" orient="auto" refX="0" refY="0"><path style="fill-rule:evenodd;stroke:#000;stroke-width:1pt" id="path7360-0" d="M 0,0 5,-5 -12.5,0 5,5 0,0 z" transform="matrix(0.2,0,0,0.2,1.2,0)"/></marker><marker style="overflow:visible" id="Arrow1Send-9" orient="auto" refX="0" refY="0"><path style="fill-rule:evenodd;stroke:#000;stroke-width:1pt" id="path7363-5" d="M 0,0 5,-5 -12.5,0 5,5 0,0 z" transform="matrix(-0.2,0,0,-0.2,-1.2,0)"/></marker><marker style="overflow:visible" id="Arrow1Sstart-8" orient="auto" refX="0" refY="0"><path style="fill-rule:evenodd;stroke:#000;stroke-width:1pt" id="path7360-2" d="M 0,0 5,-5 -12.5,0 5,5 0,0 z" transform="matrix(0.2,0,0,0.2,1.2,0)"/></marker><marker style="overflow:visible" id="Arrow1Send-0" orient="auto" refX="0" refY="0"><path style="fill-rule:evenodd;stroke:#000;stroke-width:1pt" id="path7363-6" d="M 0,0 5,-5 -12.5,0 5,5 0,0 z" transform="matrix(-0.2,0,0,-0.2,-1.2,0)"/></marker><marker style="overflow:visible" id="Arrow1Sstart-83" orient="auto" refX="0" refY="0"><path style="fill-rule:evenodd;stroke:#000;stroke-width:1pt" id="path7360-8" d="M 0,0 5,-5 -12.5,0 5,5 0,0 z" transform="matrix(0.2,0,0,0.2,1.2,0)"/></marker><marker style="overflow:visible" id="Arrow1Send-5" orient="auto" refX="0" refY="0"><path style="fill-rule:evenodd;stroke:#000;stroke-width:1pt" id="path7363-2" d="M 0,0 5,-5 -12.5,0 5,5 0,0 z" transform="matrix(-0.2,0,0,-0.2,-1.2,0)"/></marker><marker style="overflow:visible" id="Arrow1Sstart-3" orient="auto" refX="0" refY="0"><path style="fill-rule:evenodd;stroke:#000;stroke-width:1pt" id="path7360-5" d="M 0,0 5,-5 -12.5,0 5,5 0,0 z" transform="matrix(0.2,0,0,0.2,1.2,0)"/></marker><marker style="overflow:visible" id="Arrow1Send-4" orient="auto" refX="0" refY="0"><path style="fill-rule:evenodd;stroke:#000;stroke-width:1pt" id="path7363-57" d="M 0,0 5,-5 -12.5,0 5,5 0,0 z" transform="matrix(-0.2,0,0,-0.2,-1.2,0)"/></marker><marker style="overflow:visible" id="Arrow1Sstart-1" orient="auto" refX="0" refY="0"><path style="fill-rule:evenodd;stroke:#000;stroke-width:1pt" id="path7360-1" d="M 0,0 5,-5 -12.5,0 5,5 0,0 z" transform="matrix(0.2,0,0,0.2,1.2,0)"/></marker><marker style="overflow:visible" id="Arrow1Send-45" orient="auto" refX="0" refY="0"><path style="fill-rule:evenodd;stroke:#000;stroke-width:1pt" id="path7363-4" d="M 0,0 5,-5 -12.5,0 5,5 0,0 z" transform="matrix(-0.2,0,0,-0.2,-1.2,0)"/></marker><marker style="overflow:visible" id="Arrow1Sstart-18" orient="auto" refX="0" refY="0"><path style="fill-rule:evenodd;stroke:#000;stroke-width:1pt" id="path7360-4" d="M 0,0 5,-5 -12.5,0 5,5 0,0 z" transform="matrix(0.2,0,0,0.2,1.2,0)"/></marker><marker style="overflow:visible" id="Arrow1Send-07" orient="auto" refX="0" refY="0"><path style="fill-rule:evenodd;stroke:#000;stroke-width:1pt" id="path7363-7" d="M 0,0 5,-5 -12.5,0 5,5 0,0 z" transform="matrix(-0.2,0,0,-0.2,-1.2,0)"/></marker><marker style="overflow:visible" id="Arrow1Sstart-4" orient="auto" refX="0" refY="0"><path style="fill-rule:evenodd;stroke:#000;stroke-width:1pt" id="path7360-02" d="M 0,0 5,-5 -12.5,0 5,5 0,0 z" transform="matrix(0.2,0,0,0.2,1.2,0)"/></marker><marker style="overflow:visible" id="Arrow1Send-95" orient="auto" refX="0" refY="0"><path style="fill-rule:evenodd;stroke:#000;stroke-width:1pt" id="path7363-74" d="M 0,0 5,-5 -12.5,0 5,5 0,0 z" transform="matrix(-0.2,0,0,-0.2,-1.2,0)"/></marker><marker style="overflow:visible" id="marker6014" orient="auto" refX="0" refY="0"><path style="fill-rule:evenodd;stroke:#000;stroke-width:1pt" id="path6016" d="M 0,0 5,-5 -12.5,0 5,5 0,0 z" transform="matrix(0.2,0,0,0.2,1.2,0)"/></marker><marker style="overflow:visible" id="marker6018" orient="auto" refX="0" refY="0"><path style="fill-rule:evenodd;stroke:#000;stroke-width:1pt" id="path6020" d="M 0,0 5,-5 -12.5,0 5,5 0,0 z" transform="matrix(-0.2,0,0,-0.2,-1.2,0)"/></marker><marker style="overflow:visible" id="marker6022" orient="auto" refX="0" refY="0"><path style="fill-rule:evenodd;stroke:#000;stroke-width:1pt" id="path6024" d="M 0,0 5,-5 -12.5,0 5,5 0,0 z" transform="matrix(0.2,0,0,0.2,1.2,0)"/></marker><marker style="overflow:visible" id="marker6026" orient="auto" refX="0" refY="0"><path style="fill-rule:evenodd;stroke:#000;stroke-width:1pt" id="path6028" d="M 0,0 5,-5 -12.5,0 5,5 0,0 z" transform="matrix(-0.2,0,0,-0.2,-1.2,0)"/></marker><marker style="overflow:visible" id="marker6030" orient="auto" refX="0" refY="0"><path style="fill-rule:evenodd;stroke:#000;stroke-width:1pt" id="path6032" d="M 0,0 5,-5 -12.5,0 5,5 0,0 z" transform="matrix(0.2,0,0,0.2,1.2,0)"/></marker><marker style="overflow:visible" id="marker6034" orient="auto" refX="0" refY="0"><path style="fill-rule:evenodd;stroke:#000;stroke-width:1pt" id="path6036" d="M 0,0 5,-5 -12.5,0 5,5 0,0 z" transform="matrix(-0.2,0,0,-0.2,-1.2,0)"/></marker><marker style="overflow:visible" id="marker6038" orient="auto" refX="0" refY="0"><path style="fill-rule:evenodd;stroke:#000;stroke-width:1pt" id="path6040" d="M 0,0 5,-5 -12.5,0 5,5 0,0 z" transform="matrix(0.2,0,0,0.2,1.2,0)"/></marker><marker style="overflow:visible" id="marker6042" orient="auto" refX="0" refY="0"><path style="fill-rule:evenodd;stroke:#000;stroke-width:1pt" id="path6044" d="M 0,0 5,-5 -12.5,0 5,5 0,0 z" transform="matrix(-0.2,0,0,-0.2,-1.2,0)"/></marker><marker style="overflow:visible" id="EmptyTriangleInM-9" orient="auto" refX="0" refY="0"><path style="fill:#fff;fill-rule:evenodd;stroke:#000;stroke-width:1pt" id="path9727-2" d="m 5.77,0 -8.65,5 0,-10 8.65,5 z" transform="matrix(-0.4,0,0,-0.4,1.8,0)"/></marker><marker style="overflow:visible" id="EmptyTriangleOutM-3" orient="auto" refX="0" refY="0"><path style="fill:#fff;fill-rule:evenodd;stroke:#000;stroke-width:1pt" id="path9736-6" d="m 5.77,0 -8.65,5 0,-10 8.65,5 z" transform="matrix(0.4,0,0,0.4,-1.8,0)"/></marker><marker style="overflow:visible" id="EmptyTriangleInM-6" orient="auto" refX="0" refY="0"><path style="fill:#fff;fill-rule:evenodd;stroke:#000;stroke-width:1pt" id="path9727-5" d="m 5.77,0 -8.65,5 0,-10 8.65,5 z" transform="matrix(-0.4,0,0,-0.4,1.8,0)"/></marker><marker style="overflow:visible" id="EmptyTriangleOutM-4" orient="auto" refX="0" refY="0"><path style="fill:#fff;fill-rule:evenodd;stroke:#000;stroke-width:1pt" id="path9736-4" d="m 5.77,0 -8.65,5 0,-10 8.65,5 z" transform="matrix(0.4,0,0,0.4,-1.8,0)"/></marker><marker style="overflow:visible" id="EmptyTriangleInM-2" orient="auto" refX="0" refY="0"><path style="fill:#fff;fill-rule:evenodd;stroke:#000;stroke-width:1pt" id="path9727-9" d="m 5.77,0 -8.65,5 0,-10 8.65,5 z" transform="matrix(-0.4,0,0,-0.4,1.8,0)"/></marker><marker style="overflow:visible" id="EmptyTriangleOutM-5" orient="auto" refX="0" refY="0"><path style="fill:#fff;fill-rule:evenodd;stroke:#000;stroke-width:1pt" id="path9736-3" d="m 5.77,0 -8.65,5 0,-10 8.65,5 z" transform="matrix(0.4,0,0,0.4,-1.8,0)"/></marker><marker style="overflow:visible" id="EmptyTriangleInM-98" orient="auto" refX="0" refY="0"><path style="fill:#fff;fill-rule:evenodd;stroke:#000;stroke-width:1pt" id="path9727-0" d="m 5.77,0 -8.65,5 0,-10 8.65,5 z" transform="matrix(-0.4,0,0,-0.4,1.8,0)"/></marker><marker style="overflow:visible" id="EmptyTriangleOutM-8" orient="auto" refX="0" refY="0"><path style="fill:#fff;fill-rule:evenodd;stroke:#000;stroke-width:1pt" id="path9736-1" d="m 5.77,0 -8.65,5 0,-10 8.65,5 z" transform="matrix(0.4,0,0,0.4,-1.8,0)"/></marker><marker style="overflow:visible" id="EmptyTriangleInM-5" orient="auto" refX="0" refY="0"><path style="fill:#fff;fill-rule:evenodd;stroke:#000;stroke-width:1pt" id="path9727-4" d="m 5.77,0 -8.65,5 0,-10 8.65,5 z" transform="matrix(-0.4,0,0,-0.4,1.8,0)"/></marker><marker style="overflow:visible" id="EmptyTriangleOutM-56" orient="auto" refX="0" refY="0"><path style="fill:#fff;fill-rule:evenodd;stroke:#000;stroke-width:1pt" id="path9736-36" d="m 5.77,0 -8.65,5 0,-10 8.65,5 z" transform="matrix(0.4,0,0,0.4,-1.8,0)"/></marker><marker style="overflow:visible" id="EmptyTriangleInM-22" orient="auto" refX="0" refY="0"><path style="fill:#fff;fill-rule:evenodd;stroke:#000;stroke-width:1pt" id="path9727-1" d="m 5.77,0 -8.65,5 0,-10 8.65,5 z" transform="matrix(-0.4,0,0,-0.4,1.8,0)"/></marker><marker style="overflow:visible" id="EmptyTriangleOutM-7" orient="auto" refX="0" refY="0"><path style="fill:#fff;fill-rule:evenodd;stroke:#000;stroke-width:1pt" id="path9736-69" d="m 5.77,0 -8.65,5 0,-10 8.65,5 z" transform="matrix(0.4,0,0,0.4,-1.8,0)"/></marker><marker style="overflow:visible" id="EmptyTriangleInM-4" orient="auto" refX="0" refY="0"><path style="fill:#fff;fill-rule:evenodd;stroke:#000;stroke-width:1pt" id="path9727-44" d="m 5.77,0 -8.65,5 0,-10 8.65,5 z" transform="matrix(-0.4,0,0,-0.4,1.8,0)"/></marker><marker style="overflow:visible" id="EmptyTriangleOutM-9" orient="auto" refX="0" refY="0"><path style="fill:#fff;fill-rule:evenodd;stroke:#000;stroke-width:1pt" id="path9736-9" d="m 5.77,0 -8.65,5 0,-10 8.65,5 z" transform="matrix(0.4,0,0,0.4,-1.8,0)"/></marker><marker style="overflow:visible" id="EmptyTriangleInM-1" orient="auto" refX="0" refY="0"><path style="fill:#fff;fill-rule:evenodd;stroke:#000;stroke-width:1pt" id="path9727-8" d="m 5.77,0 -8.65,5 0,-10 8.65,5 z" transform="matrix(-0.4,0,0,-0.4,1.8,0)"/></marker><marker style="overflow:visible" id="EmptyTriangleOutM-2" orient="auto" refX="0" refY="0"><path style="fill:#fff;fill-rule:evenodd;stroke:#000;stroke-width:1pt" id="path9736-63" d="m 5.77,0 -8.65,5 0,-10 8.65,5 z" transform="matrix(0.4,0,0,0.4,-1.8,0)"/></marker><marker style="overflow:visible" id="EmptyTriangleInM-45" orient="auto" refX="0" refY="0"><path style="fill:#fff;fill-rule:evenodd;stroke:#000;stroke-width:1pt" id="path9727-3" d="m 5.77,0 -8.65,5 0,-10 8.65,5 z" transform="matrix(-0.4,0,0,-0.4,1.8,0)"/></marker><marker style="overflow:visible" id="EmptyTriangleOutM-75" orient="auto" refX="0" refY="0"><path style="fill:#fff;fill-rule:evenodd;stroke:#000;stroke-width:1pt" id="path9736-0" d="m 5.77,0 -8.65,5 0,-10 8.65,5 z" transform="matrix(0.4,0,0,0.4,-1.8,0)"/></marker><marker style="overflow:visible" id="EmptyTriangleInM-41" orient="auto" refX="0" refY="0"><path style="fill:#fff;fill-rule:evenodd;stroke:#000;stroke-width:1pt" id="path9727-82" d="m 5.77,0 -8.65,5 0,-10 8.65,5 z" transform="matrix(-0.4,0,0,-0.4,1.8,0)"/></marker><marker style="overflow:visible" id="EmptyTriangleOutM-0" orient="auto" refX="0" refY="0"><path style="fill:#fff;fill-rule:evenodd;stroke:#000;stroke-width:1pt" id="path9736-7" d="m 5.77,0 -8.65,5 0,-10 8.65,5 z" transform="matrix(0.4,0,0,0.4,-1.8,0)"/></marker><marker style="overflow:visible" id="EmptyTriangleInM-53" orient="auto" refX="0" refY="0"><path style="fill:#fff;fill-rule:evenodd;stroke:#000;stroke-width:1pt" id="path9727-56" d="m 5.77,0 -8.65,5 0,-10 8.65,5 z" transform="matrix(-0.4,0,0,-0.4,1.8,0)"/></marker><marker style="overflow:visible" id="EmptyTriangleOutM-38" orient="auto" refX="0" refY="0"><path style="fill:#fff;fill-rule:evenodd;stroke:#000;stroke-width:1pt" id="path9736-47" d="m 5.77,0 -8.65,5 0,-10 8.65,5 z" transform="matrix(0.4,0,0,0.4,-1.8,0)"/></marker><marker style="overflow:visible" id="EmptyTriangleInM-91" orient="auto" refX="0" refY="0"><path style="fill:#fff;fill-rule:evenodd;stroke:#000;stroke-width:1pt" id="path9727-84" d="m 5.77,0 -8.65,5 0,-10 8.65,5 z" transform="matrix(-0.4,0,0,-0.4,1.8,0)"/></marker><marker style="overflow:visible" id="EmptyTriangleOutM-6" orient="auto" refX="0" refY="0"><path style="fill:#fff;fill-rule:evenodd;stroke:#000;stroke-width:1pt" id="path9736-72" d="m 5.77,0 -8.65,5 0,-10 8.65,5 z" transform="matrix(0.4,0,0,0.4,-1.8,0)"/></marker><marker style="overflow:visible" id="EmptyTriangleInM-29" orient="auto" refX="0" refY="0"><path style="fill:#fff;fill-rule:evenodd;stroke:#000;stroke-width:1pt" id="path9727-92" d="m 5.77,0 -8.65,5 0,-10 8.65,5 z" transform="matrix(-0.4,0,0,-0.4,1.8,0)"/></marker><marker style="overflow:visible" id="EmptyTriangleOutM-35" orient="auto" refX="0" refY="0"><path style="fill:#fff;fill-rule:evenodd;stroke:#000;stroke-width:1pt" id="path9736-92" d="m 5.77,0 -8.65,5 0,-10 8.65,5 z" transform="matrix(0.4,0,0,0.4,-1.8,0)"/></marker><marker style="overflow:visible" id="marker14086" orient="auto" refX="0" refY="0"><path style="fill:#fff;fill-rule:evenodd;stroke:#000;stroke-width:1pt" id="path14088" d="m 5.77,0 -8.65,5 0,-10 8.65,5 z" transform="matrix(-0.4,0,0,-0.4,1.8,0)"/></marker><marker style="overflow:visible" id="marker14090" orient="auto" refX="0" refY="0"><path style="fill:#fff;fill-rule:evenodd;stroke:#000;stroke-width:1pt" id="path14092" d="m 5.77,0 -8.65,5 0,-10 8.65,5 z" transform="matrix(0.4,0,0,0.4,-1.8,0)"/></marker><marker style="overflow:visible" id="EmptyTriangleInM-3" orient="auto" refX="0" refY="0"><path style="fill:#fff;fill-rule:evenodd;stroke:#000;stroke-width:1pt" id="path9727-7" d="m 5.77,0 -8.65,5 0,-10 8.65,5 z" transform="matrix(-0.4,0,0,-0.4,1.8,0)"/></marker><marker style="overflow:visible" id="EmptyTriangleOutM-90" orient="auto" refX="0" refY="0"><path style="fill:#fff;fill-rule:evenodd;stroke:#000;stroke-width:1pt" id="path9736-41" d="m 5.77,0 -8.65,5 0,-10 8.65,5 z" transform="matrix(0.4,0,0,0.4,-1.8,0)"/></marker><marker style="overflow:visible" id="EmptyTriangleInM-61" orient="auto" refX="0" refY="0"><path style="fill:#fff;fill-rule:evenodd;stroke:#000;stroke-width:1pt" id="path9727-22" d="m 5.77,0 -8.65,5 0,-10 8.65,5 z" transform="matrix(-0.4,0,0,-0.4,1.8,0)"/></marker><marker style="overflow:visible" id="EmptyTriangleOutM-33" orient="auto" refX="0" refY="0"><path style="fill:#fff;fill-rule:evenodd;stroke:#000;stroke-width:1pt" id="path9736-5" d="m 5.77,0 -8.65,5 0,-10 8.65,5 z" transform="matrix(0.4,0,0,0.4,-1.8,0)"/></marker></defs><metadata id="metadata4004"/><g id="layer1"><rect id="rect6034-3" width="238.416" height="56.895" x="628.381" y="295" rx="7.2" style="opacity:.89961392;fill:none;stroke:#000;stroke-width:1.98000002;stroke-miterlimit:4;stroke-dasharray:none;stroke-opacity:1"/><text id="text6218-8-6" x="652.422" y="324.65" xml:space="preserve" style="font-style:normal;font-weight:700;font-size:12px;line-height:125%;font-family:Sans;-inkscape-font-specification:'Sans Bold';letter-spacing:0;word-spacing:0;fill:#000;fill-opacity:1;stroke:none"><tspan style="font-style:normal;font-weight:700;font-size:10px;font-family:'Times New Roman';-inkscape-font-specification:'Times New Roman';text-align:center;text-anchor:middle" id="tspan6243-9" x="652.422" y="324.65">NDB</tspan></text><rect id="rect8004-1" width="101.217" height="48.028" x="-637.439" y="408.38" rx="13.391" transform="scale(-1,1)" style="fill:#fff;fill-opacity:1;stroke:#000;stroke-width:.7485553;stroke-miterlimit:4;stroke-opacity:1;stroke-dasharray:none"/><rect id="rect8004-8" width="101.194" height="51.059" x="-641.397" y="400.49" rx="13.388" transform="scale(-1,1)" style="fill:#fff;fill-opacity:1;stroke:#000;stroke-width:.77172285;stroke-miterlimit:4;stroke-opacity:1;stroke-dasharray:none"/><rect id="rect8004" width="101.182" height="52.676" x="-645.87" y="395.217" rx="13.387" transform="scale(-1,1)" style="fill:#fff;fill-opacity:1;stroke:#000;stroke-width:.78379786;stroke-miterlimit:4;stroke-opacity:1;stroke-dasharray:none"/><text id="text6218-8-6-7" x="764" y="456.629" xml:space="preserve" style="font-style:normal;font-weight:700;font-size:12px;line-height:125%;font-family:Sans;-inkscape-font-specification:'Sans Bold';letter-spacing:0;word-spacing:0;fill:#000;fill-opacity:1;stroke:none"><tspan style="font-weight:700;font-size:10px;font-family:'Times New Roman';-inkscape-font-specification:'Times New Roman';text-align:center;text-anchor:middle" id="tspan6243-9-8" x="764" y="456.629">NameNodes</tspan></text><text id="text9588" x="562" y="413" xml:space="preserve" style="font-style:normal;font-weight:700;font-size:10px;line-height:125%;font-family:Sans;-inkscape-font-specification:'Sans Bold';letter-spacing:0;word-spacing:0;fill:#000;fill-opacity:1;stroke:none"><tspan style="font-family:'Times New Roman';-inkscape-font-specification:'Times New Roman'" id="tspan9590" x="562" y="413">HDFS Client</tspan><tspan id="tspan4770" x="562" y="425.5" style="font-family:'Times New Roman';-inkscape-font-specification:'Times New Roman'">or</tspan><tspan id="tspan4772" x="562" y="438" style="font-family:'Times New Roman';-inkscape-font-specification:'Times New Roman'">HopsFS Client</tspan></text><flowRoot style="fill:#000;stroke:none;stroke-opacity:1;stroke-width:1px;stroke-linejoin:miter;stroke-linecap:butt;fill-opacity:1;font-family:Sans;font-style:normal;font-weight:400;font-size:8px;line-height:125%;letter-spacing:0;word-spacing:0" id="flowRoot3591" xml:space="preserve"><flowRegion id="flowRegion3593"><rect id="rect3595" width="536.671" height="298.278" x="-255.667" y="-57.281"/></flowRegion><flowPara id="flowPara3597"/></flowRoot><text id="text6218" x="259.088" y="453" xml:space="preserve" style="font-style:normal;font-weight:700;font-size:12px;line-height:125%;font-family:Sans;-inkscape-font-specification:'Sans Bold';text-align:center;letter-spacing:0;word-spacing:0;text-anchor:middle;fill:#000;fill-opacity:1;stroke:none"><tspan style="font-style:normal;font-weight:700;font-size:10px;font-family:'Times New Roman';-inkscape-font-specification:'Times New Roman'" id="tspan12817" x="259.088" y="453">NameNode</tspan></text><text id="text6218-8" x="335" y="453" xml:space="preserve" style="font-style:normal;font-weight:400;font-size:12px;line-height:125%;font-family:Sans;letter-spacing:0;word-spacing:0;fill:#000;fill-opacity:1;stroke:none"><tspan id="tspan4866" x="335" y="453" style="font-weight:700;font-size:10px;font-family:'Times New Roman';-inkscape-font-specification:'Times New Roman';text-align:center;text-anchor:middle">Standby NN</tspan></text><rect id="rect6034-3-8" width="132.95" height="69.95" x="48.399" y="292.572" rx="7.2" style="opacity:.89961392;fill:none;stroke:#000;stroke-width:2.05021477;stroke-miterlimit:4;stroke-opacity:1;stroke-dasharray:none"/><text id="text6218-8-6-1" x="116" y="356.559" xml:space="preserve" style="font-size:12px;font-style:normal;font-weight:700;line-height:125%;letter-spacing:0;word-spacing:0;fill:#000;fill-opacity:1;stroke:none;font-family:Sans;-inkscape-font-specification:Sans Bold"><tspan style="font-size:10px;font-weight:700;text-align:center;text-anchor:middle;font-family:Times New Roman;-inkscape-font-specification:Times New Roman" id="tspan6243-9-39" x="116" y="356.559">Journal Nodes</tspan></text><rect id="rect6403-8" width="327.539" height="83.452" x="48.638" y="487.997" rx="7.201" style="opacity:.89961392;fill:none;stroke:#000;stroke-width:2.06898355;stroke-miterlimit:4;stroke-opacity:1;stroke-dasharray:none"/><g id="g6528-7-3" transform="matrix(0.1451581,0,0,0.12320773,63.99383,499.47017)"><path id="path6530-6-8" d="m 390.083,148.075 c 18.716,0 33.942,-15.227 33.942,-33.942 l 0,-44.053 c 0,-18.716 -15.227,-33.942 -33.942,-33.942 l -356.14,0 C 15.227,36.138 0,51.365 0,70.08 l 0,44.053 c 0,18.716 15.227,33.942 33.943,33.942 118.33508,0.47034 250.19899,0.0934 356.14,0.002 z M 16,114.133 16,70.08 c 0,-9.894 8.049,-17.942 17.943,-17.942 l 356.141,0 c 9.894,0 17.942,8.049 17.942,17.942 l 0,44.053 c 0,9.894 -8.049,17.942 -17.942,17.942 l -356.141,0 C 24.049,132.075 16,124.027 16,114.133 z"/><path id="path6532-0-5" d="m 56.028,68.053 c -13.237,0 -24.007,10.77 -24.007,24.008 0,13.237 10.77,24.007 24.007,24.007 13.238,0 24.007,-10.77 24.007,-24.007 C 80.036,78.823 69.266,68.053 56.028,68.053 z m 0,32.015 c -4.415,0 -8.007,-3.592 -8.007,-8.007 0,-4.415 3.592,-8.008 8.007,-8.008 4.415,0 8.007,3.592 8.007,8.008 0.001,4.415 -3.592,8.007 -8.007,8.007 z"/><path id="path6534-8-6" d="m 367.885,116.068 c 13.238,0 24.008,-10.77 24.008,-24.007 0,-13.238 -10.77,-24.008 -24.008,-24.008 -13.237,0 -24.006,10.77 -24.006,24.008 -0.001,13.237 10.768,24.007 24.006,24.007 z m 0,-32.015 c 4.416,0 8.008,3.592 8.008,8.008 0,4.415 -3.592,8.007 -8.008,8.007 -4.415,0 -8.006,-3.592 -8.006,-8.007 -0.001,-4.415 3.591,-8.008 8.006,-8.008 z"/><path id="path6536-80-9" d="m 312.027,116.068 c 13.238,0 24.007,-10.77 24.007,-24.007 0,-13.238 -10.77,-24.008 -24.007,-24.008 -13.237,0 -24.007,10.77 -24.007,24.008 0.001,13.237 10.77,24.007 24.007,24.007 z m 0,-32.015 c 4.415,0 8.007,3.592 8.007,8.008 0,4.415 -3.592,8.007 -8.007,8.007 -4.415,0 -8.007,-3.592 -8.007,-8.007 0.001,-4.415 3.592,-8.008 8.007,-8.008 z"/><path id="path6538-402-3" d="m 280.346,92.234 c 0,-13.265 -10.792,-24.056 -24.056,-24.056 H 112.013 c -13.264,0 -24.055,10.792 -24.055,24.056 0,13.263 10.791,24.053 24.055,24.053 h 144.278 c 13.264,0 24.055,-10.79 24.055,-24.053 z m -176.388,0 c 0,-4.442 3.613,-8.056 8.055,-8.056 h 144.278 c 4.442,0 8.056,3.614 8.056,8.056 0,4.44 -3.614,8.053 -8.056,8.053 H 112.013 c -4.442,0 -8.055,-3.613 -8.055,-8.053 z"/></g><text id="text6218-6-1" x="189" y="563" xml:space="preserve" style="font-size:12px;font-style:normal;font-weight:700;line-height:125%;letter-spacing:0;word-spacing:0;fill:#000;fill-opacity:1;stroke:none;font-family:Sans;-inkscape-font-specification:Sans Bold"><tspan style="font-size:10px;font-weight:700;font-family:Times New Roman;-inkscape-font-specification:Times New Roman" id="tspan6220-2-9" x="189" y="563">DataNodes</tspan></text><rect id="rect6034-3-2-8" width="156.395" height="69.779" x="217.767" y="391.83" rx="7.2" style="opacity:.89961392;fill:none;stroke:#000;stroke-width:2.22093725;stroke-miterlimit:4;stroke-opacity:1;stroke-dasharray:none;stroke-dashoffset:0"/><g id="g6528-7-3-35" transform="matrix(0.1451581,0,0,0.12320773,64.452542,526.07155)"><path id="path6530-6-8-8" d="m 390.083,148.075 c 18.716,0 33.942,-15.227 33.942,-33.942 l 0,-44.053 c 0,-18.716 -15.227,-33.942 -33.942,-33.942 l -356.14,0 C 15.227,36.138 0,51.365 0,70.08 l 0,44.053 c 0,18.716 15.227,33.942 33.943,33.942 118.33508,0.47034 250.19899,0.0934 356.14,0.002 z M 16,114.133 16,70.08 c 0,-9.894 8.049,-17.942 17.943,-17.942 l 356.141,0 c 9.894,0 17.942,8.049 17.942,17.942 l 0,44.053 c 0,9.894 -8.049,17.942 -17.942,17.942 l -356.141,0 C 24.049,132.075 16,124.027 16,114.133 z"/><path id="path6532-0-5-0" d="m 56.028,68.053 c -13.237,0 -24.007,10.77 -24.007,24.008 0,13.237 10.77,24.007 24.007,24.007 13.238,0 24.007,-10.77 24.007,-24.007 C 80.036,78.823 69.266,68.053 56.028,68.053 z m 0,32.015 c -4.415,0 -8.007,-3.592 -8.007,-8.007 0,-4.415 3.592,-8.008 8.007,-8.008 4.415,0 8.007,3.592 8.007,8.008 0.001,4.415 -3.592,8.007 -8.007,8.007 z"/><path id="path6534-8-6-4" d="m 367.885,116.068 c 13.238,0 24.008,-10.77 24.008,-24.007 0,-13.238 -10.77,-24.008 -24.008,-24.008 -13.237,0 -24.006,10.77 -24.006,24.008 -0.001,13.237 10.768,24.007 24.006,24.007 z m 0,-32.015 c 4.416,0 8.008,3.592 8.008,8.008 0,4.415 -3.592,8.007 -8.008,8.007 -4.415,0 -8.006,-3.592 -8.006,-8.007 -0.001,-4.415 3.591,-8.008 8.006,-8.008 z"/><path id="path6536-80-9-5" d="m 312.027,116.068 c 13.238,0 24.007,-10.77 24.007,-24.007 0,-13.238 -10.77,-24.008 -24.007,-24.008 -13.237,0 -24.007,10.77 -24.007,24.008 0.001,13.237 10.77,24.007 24.007,24.007 z m 0,-32.015 c 4.415,0 8.007,3.592 8.007,8.008 0,4.415 -3.592,8.007 -8.007,8.007 -4.415,0 -8.007,-3.592 -8.007,-8.007 0.001,-4.415 3.592,-8.008 8.007,-8.008 z"/><path id="path6538-402-3-2" d="m 280.346,92.234 c 0,-13.265 -10.792,-24.056 -24.056,-24.056 H 112.013 c -13.264,0 -24.055,10.792 -24.055,24.056 0,13.263 10.791,24.053 24.055,24.053 h 144.278 c 13.264,0 24.055,-10.79 24.055,-24.053 z m -176.388,0 c 0,-4.442 3.613,-8.056 8.055,-8.056 h 144.278 c 4.442,0 8.056,3.614 8.056,8.056 0,4.44 -3.614,8.053 -8.056,8.053 H 112.013 c -4.442,0 -8.055,-3.613 -8.055,-8.053 z"/></g><rect id="rect6034-3-2-8-5" width="195.521" height="84.533" x="671.896" y="378.257" rx="7.2" style="opacity:.89961392;fill:none;stroke:#000;stroke-width:2.479;stroke-miterlimit:4;stroke-dasharray:none;stroke-dashoffset:0;stroke-opacity:1"/><path id="path8089-8-5-0" d="m 185.98207,365.46673 24.44084,20.94122" style="fill:none;stroke:#000;stroke-width:2.25;stroke-linecap:butt;stroke-linejoin:miter;stroke-miterlimit:4;stroke-opacity:1;stroke-dasharray:none;marker-start:url(#EmptyTriangleInM);marker-mid:none;marker-end:url(#EmptyTriangleOutM)"/><path id="path8089-8-5-9" d="m 297.74316,366.53507 0.15309,21.28883" style="fill:none;stroke:#000;stroke-width:2.24655008;stroke-linecap:butt;stroke-linejoin:miter;stroke-miterlimit:4;stroke-opacity:1;stroke-dasharray:none;marker-start:url(#EmptyTriangleInM);marker-mid:none;marker-end:url(#EmptyTriangleOutM)"/><path id="path8089-8-5-2-9" d="m 577.19047,462.44211 0.15309,21.28882" style="fill:none;stroke:#000;stroke-width:2.24655008;stroke-linecap:butt;stroke-linejoin:miter;stroke-miterlimit:4;stroke-opacity:1;stroke-dasharray:none;marker-start:url(#EmptyTriangleInM);marker-mid:none;marker-end:url(#EmptyTriangleOutM)"/><path id="path8089-8-5-2-7" d="m 789.20584,463.59375 0.15309,21.28882" style="fill:none;stroke:#000;stroke-width:2.24655008;stroke-linecap:butt;stroke-linejoin:miter;stroke-miterlimit:4;stroke-opacity:1;stroke-dasharray:none;marker-start:url(#EmptyTriangleInM);marker-mid:none;marker-end:url(#EmptyTriangleOutM)"/><path id="path8089-8-5-2-3" d="m 775.76629,354.44211 0.15309,21.28882" style="fill:none;stroke:#000;stroke-width:2.24655008;stroke-linecap:butt;stroke-linejoin:miter;stroke-miterlimit:4;stroke-dasharray:none;stroke-opacity:1;marker-start:url(#EmptyTriangleInM);marker-mid:none;marker-end:url(#EmptyTriangleOutM)"/><path id="path8089-8-5-0-3" d="m 669.83075,419.80887 -21.26851,0.94238" style="fill:none;stroke:#000;stroke-width:2.24655008;stroke-linecap:butt;stroke-linejoin:miter;stroke-miterlimit:4;stroke-opacity:1;stroke-dasharray:none;marker-start:url(#EmptyTriangleInM);marker-mid:none;marker-end:url(#EmptyTriangleOutM)"/><path id="path8089-8-5-0-3-6" d="m 205.59162,422.58926 -33.77174,0.88144" style="fill:none;stroke:#000;stroke-width:2.25;stroke-linecap:butt;stroke-linejoin:miter;stroke-miterlimit:4;stroke-dasharray:none;stroke-opacity:1;marker-start:url(#EmptyTriangleInM);marker-mid:none;marker-end:url(#EmptyTriangleOutM)"/><path id="path8089-8-5-0-3-4-7" d="m 834.14481,680.79706 -165.06992,0.0134 -643.31812,0.32334 -33.0448444,0.0166" style="fill:none;stroke:#000;stroke-width:2.20934343;stroke-linecap:butt;stroke-linejoin:miter;stroke-miterlimit:4;stroke-dasharray:2.20934342,4.41868684;stroke-dashoffset:0;stroke-opacity:1;marker-start:none;marker-mid:none;marker-end:none"/><path style="fill:#010002" id="path3959-2-6-4-0-1-6" d="m 158.53059,311.04129 -12.32057,0 0,-1.72423 12.32057,0 z m 0,1.12441 -12.32057,0 0,1.72755 12.32057,0 z m -0.004,-7.82132 -12.30173,0 0,3.79872 12.30173,0 z m 3.93585,-4.08408 0,40.71613 c -9.4e-4,0.61004 -0.5507,1.10727 -1.22582,1.10727 l -17.72181,0 c -0.67704,0 -1.22392,-0.49743 -1.22392,-1.109 l 0,-40.7144 c 0,-0.61176 0.54688,-1.11074 1.22392,-1.11074 l 17.72181,0 c 0.67702,0 1.22582,0.49903 1.22582,1.11074 z m -2.44979,1.10563 -15.27579,0 0,38.49975 15.27579,0 z m -1.47853,13.65007 -12.32055,0 0,1.72249 12.32055,0 z m -2.00465,12.8469 c 0,1.98567 -1.7708,3.58682 -3.95469,3.58682 -2.18765,0 -3.95854,-1.60288 -3.95854,-3.58682 0,-1.97882 1.77281,-3.58509 3.95854,-3.58509 2.18389,0 3.95469,1.608 3.95469,3.58509 z m -1.42762,0 c 0,-1.26282 -1.13149,-2.29153 -2.52899,-2.29153 -1.39928,0 -2.53087,1.027 -2.53087,2.29153 0,1.26452 1.13159,2.28987 2.53087,2.28987 1.3975,0 2.52899,-1.02535 2.52899,-2.28987 z"/><g id="g6528-7-3-5" transform="matrix(0.1451581,0,0,0.12320773,139.99383,499.47017)"><path id="path6530-6-8-3" d="m 390.083,148.075 c 18.716,0 33.942,-15.227 33.942,-33.942 l 0,-44.053 c 0,-18.716 -15.227,-33.942 -33.942,-33.942 l -356.14,0 C 15.227,36.138 0,51.365 0,70.08 l 0,44.053 c 0,18.716 15.227,33.942 33.943,33.942 118.33508,0.47034 250.19899,0.0934 356.14,0.002 z M 16,114.133 16,70.08 c 0,-9.894 8.049,-17.942 17.943,-17.942 l 356.141,0 c 9.894,0 17.942,8.049 17.942,17.942 l 0,44.053 c 0,9.894 -8.049,17.942 -17.942,17.942 l -356.141,0 C 24.049,132.075 16,124.027 16,114.133 z"/><path id="path6532-0-5-4" d="m 56.028,68.053 c -13.237,0 -24.007,10.77 -24.007,24.008 0,13.237 10.77,24.007 24.007,24.007 13.238,0 24.007,-10.77 24.007,-24.007 C 80.036,78.823 69.266,68.053 56.028,68.053 z m 0,32.015 c -4.415,0 -8.007,-3.592 -8.007,-8.007 0,-4.415 3.592,-8.008 8.007,-8.008 4.415,0 8.007,3.592 8.007,8.008 0.001,4.415 -3.592,8.007 -8.007,8.007 z"/><path id="path6534-8-6-7" d="m 367.885,116.068 c 13.238,0 24.008,-10.77 24.008,-24.007 0,-13.238 -10.77,-24.008 -24.008,-24.008 -13.237,0 -24.006,10.77 -24.006,24.008 -0.001,13.237 10.768,24.007 24.006,24.007 z m 0,-32.015 c 4.416,0 8.008,3.592 8.008,8.008 0,4.415 -3.592,8.007 -8.008,8.007 -4.415,0 -8.006,-3.592 -8.006,-8.007 -0.001,-4.415 3.591,-8.008 8.006,-8.008 z"/><path id="path6536-80-9-62" d="m 312.027,116.068 c 13.238,0 24.007,-10.77 24.007,-24.007 0,-13.238 -10.77,-24.008 -24.007,-24.008 -13.237,0 -24.007,10.77 -24.007,24.008 0.001,13.237 10.77,24.007 24.007,24.007 z m 0,-32.015 c 4.415,0 8.007,3.592 8.007,8.008 0,4.415 -3.592,8.007 -8.007,8.007 -4.415,0 -8.007,-3.592 -8.007,-8.007 0.001,-4.415 3.592,-8.008 8.007,-8.008 z"/><path id="path6538-402-3-3" d="m 280.346,92.234 c 0,-13.265 -10.792,-24.056 -24.056,-24.056 H 112.013 c -13.264,0 -24.055,10.792 -24.055,24.056 0,13.263 10.791,24.053 24.055,24.053 h 144.278 c 13.264,0 24.055,-10.79 24.055,-24.053 z m -176.388,0 c 0,-4.442 3.613,-8.056 8.055,-8.056 h 144.278 c 4.442,0 8.056,3.614 8.056,8.056 0,4.44 -3.614,8.053 -8.056,8.053 H 112.013 c -4.442,0 -8.055,-3.613 -8.055,-8.053 z"/></g><g id="g6528-7-3-35-1" transform="matrix(0.1451581,0,0,0.12320773,140.45254,526.07155)"><path id="path6530-6-8-8-4" d="m 390.083,148.075 c 18.716,0 33.942,-15.227 33.942,-33.942 l 0,-44.053 c 0,-18.716 -15.227,-33.942 -33.942,-33.942 l -356.14,0 C 15.227,36.138 0,51.365 0,70.08 l 0,44.053 c 0,18.716 15.227,33.942 33.943,33.942 118.33508,0.47034 250.19899,0.0934 356.14,0.002 z M 16,114.133 16,70.08 c 0,-9.894 8.049,-17.942 17.943,-17.942 l 356.141,0 c 9.894,0 17.942,8.049 17.942,17.942 l 0,44.053 c 0,9.894 -8.049,17.942 -17.942,17.942 l -356.141,0 C 24.049,132.075 16,124.027 16,114.133 z"/><path id="path6532-0-5-0-9" d="m 56.028,68.053 c -13.237,0 -24.007,10.77 -24.007,24.008 0,13.237 10.77,24.007 24.007,24.007 13.238,0 24.007,-10.77 24.007,-24.007 C 80.036,78.823 69.266,68.053 56.028,68.053 z m 0,32.015 c -4.415,0 -8.007,-3.592 -8.007,-8.007 0,-4.415 3.592,-8.008 8.007,-8.008 4.415,0 8.007,3.592 8.007,8.008 0.001,4.415 -3.592,8.007 -8.007,8.007 z"/><path id="path6534-8-6-4-9" d="m 367.885,116.068 c 13.238,0 24.008,-10.77 24.008,-24.007 0,-13.238 -10.77,-24.008 -24.008,-24.008 -13.237,0 -24.006,10.77 -24.006,24.008 -0.001,13.237 10.768,24.007 24.006,24.007 z m 0,-32.015 c 4.416,0 8.008,3.592 8.008,8.008 0,4.415 -3.592,8.007 -8.008,8.007 -4.415,0 -8.006,-3.592 -8.006,-8.007 -0.001,-4.415 3.591,-8.008 8.006,-8.008 z"/><path id="path6536-80-9-5-6" d="m 312.027,116.068 c 13.238,0 24.007,-10.77 24.007,-24.007 0,-13.238 -10.77,-24.008 -24.007,-24.008 -13.237,0 -24.007,10.77 -24.007,24.008 0.001,13.237 10.77,24.007 24.007,24.007 z m 0,-32.015 c 4.415,0 8.007,3.592 8.007,8.008 0,4.415 -3.592,8.007 -8.007,8.007 -4.415,0 -8.007,-3.592 -8.007,-8.007 0.001,-4.415 3.592,-8.008 8.007,-8.008 z"/><path id="path6538-402-3-2-3" d="m 280.346,92.234 c 0,-13.265 -10.792,-24.056 -24.056,-24.056 H 112.013 c -13.264,0 -24.055,10.792 -24.055,24.056 0,13.263 10.791,24.053 24.055,24.053 h 144.278 c 13.264,0 24.055,-10.79 24.055,-24.053 z m -176.388,0 c 0,-4.442 3.613,-8.056 8.055,-8.056 h 144.278 c 4.442,0 8.056,3.614 8.056,8.056 0,4.44 -3.614,8.053 -8.056,8.053 H 112.013 c -4.442,0 -8.055,-3.613 -8.055,-8.053 z"/></g><g id="g6528-7-3-2" transform="matrix(0.1451581,0,0,0.12320773,217.99383,499.47017)"><path id="path6530-6-8-7" d="m 390.083,148.075 c 18.716,0 33.942,-15.227 33.942,-33.942 l 0,-44.053 c 0,-18.716 -15.227,-33.942 -33.942,-33.942 l -356.14,0 C 15.227,36.138 0,51.365 0,70.08 l 0,44.053 c 0,18.716 15.227,33.942 33.943,33.942 118.33508,0.47034 250.19899,0.0934 356.14,0.002 z M 16,114.133 16,70.08 c 0,-9.894 8.049,-17.942 17.943,-17.942 l 356.141,0 c 9.894,0 17.942,8.049 17.942,17.942 l 0,44.053 c 0,9.894 -8.049,17.942 -17.942,17.942 l -356.141,0 C 24.049,132.075 16,124.027 16,114.133 z"/><path id="path6532-0-5-1" d="m 56.028,68.053 c -13.237,0 -24.007,10.77 -24.007,24.008 0,13.237 10.77,24.007 24.007,24.007 13.238,0 24.007,-10.77 24.007,-24.007 C 80.036,78.823 69.266,68.053 56.028,68.053 z m 0,32.015 c -4.415,0 -8.007,-3.592 -8.007,-8.007 0,-4.415 3.592,-8.008 8.007,-8.008 4.415,0 8.007,3.592 8.007,8.008 0.001,4.415 -3.592,8.007 -8.007,8.007 z"/><path id="path6534-8-6-98" d="m 367.885,116.068 c 13.238,0 24.008,-10.77 24.008,-24.007 0,-13.238 -10.77,-24.008 -24.008,-24.008 -13.237,0 -24.006,10.77 -24.006,24.008 -0.001,13.237 10.768,24.007 24.006,24.007 z m 0,-32.015 c 4.416,0 8.008,3.592 8.008,8.008 0,4.415 -3.592,8.007 -8.008,8.007 -4.415,0 -8.006,-3.592 -8.006,-8.007 -0.001,-4.415 3.591,-8.008 8.006,-8.008 z"/><path id="path6536-80-9-65" d="m 312.027,116.068 c 13.238,0 24.007,-10.77 24.007,-24.007 0,-13.238 -10.77,-24.008 -24.007,-24.008 -13.237,0 -24.007,10.77 -24.007,24.008 0.001,13.237 10.77,24.007 24.007,24.007 z m 0,-32.015 c 4.415,0 8.007,3.592 8.007,8.008 0,4.415 -3.592,8.007 -8.007,8.007 -4.415,0 -8.007,-3.592 -8.007,-8.007 0.001,-4.415 3.592,-8.008 8.007,-8.008 z"/><path id="path6538-402-3-5" d="m 280.346,92.234 c 0,-13.265 -10.792,-24.056 -24.056,-24.056 H 112.013 c -13.264,0 -24.055,10.792 -24.055,24.056 0,13.263 10.791,24.053 24.055,24.053 h 144.278 c 13.264,0 24.055,-10.79 24.055,-24.053 z m -176.388,0 c 0,-4.442 3.613,-8.056 8.055,-8.056 h 144.278 c 4.442,0 8.056,3.614 8.056,8.056 0,4.44 -3.614,8.053 -8.056,8.053 H 112.013 c -4.442,0 -8.055,-3.613 -8.055,-8.053 z"/></g><g id="g6528-7-3-35-5" transform="matrix(0.1451581,0,0,0.12320773,218.45254,526.07155)"><path id="path6530-6-8-8-5" d="m 390.083,148.075 c 18.716,0 33.942,-15.227 33.942,-33.942 l 0,-44.053 c 0,-18.716 -15.227,-33.942 -33.942,-33.942 l -356.14,0 C 15.227,36.138 0,51.365 0,70.08 l 0,44.053 c 0,18.716 15.227,33.942 33.943,33.942 118.33508,0.47034 250.19899,0.0934 356.14,0.002 z M 16,114.133 16,70.08 c 0,-9.894 8.049,-17.942 17.943,-17.942 l 356.141,0 c 9.894,0 17.942,8.049 17.942,17.942 l 0,44.053 c 0,9.894 -8.049,17.942 -17.942,17.942 l -356.141,0 C 24.049,132.075 16,124.027 16,114.133 z"/><path id="path6532-0-5-0-0" d="m 56.028,68.053 c -13.237,0 -24.007,10.77 -24.007,24.008 0,13.237 10.77,24.007 24.007,24.007 13.238,0 24.007,-10.77 24.007,-24.007 C 80.036,78.823 69.266,68.053 56.028,68.053 z m 0,32.015 c -4.415,0 -8.007,-3.592 -8.007,-8.007 0,-4.415 3.592,-8.008 8.007,-8.008 4.415,0 8.007,3.592 8.007,8.008 0.001,4.415 -3.592,8.007 -8.007,8.007 z"/><path id="path6534-8-6-4-1" d="m 367.885,116.068 c 13.238,0 24.008,-10.77 24.008,-24.007 0,-13.238 -10.77,-24.008 -24.008,-24.008 -13.237,0 -24.006,10.77 -24.006,24.008 -0.001,13.237 10.768,24.007 24.006,24.007 z m 0,-32.015 c 4.416,0 8.008,3.592 8.008,8.008 0,4.415 -3.592,8.007 -8.008,8.007 -4.415,0 -8.006,-3.592 -8.006,-8.007 -0.001,-4.415 3.591,-8.008 8.006,-8.008 z"/><path id="path6536-80-9-5-8" d="m 312.027,116.068 c 13.238,0 24.007,-10.77 24.007,-24.007 0,-13.238 -10.77,-24.008 -24.007,-24.008 -13.237,0 -24.007,10.77 -24.007,24.008 0.001,13.237 10.77,24.007 24.007,24.007 z m 0,-32.015 c 4.415,0 8.007,3.592 8.007,8.008 0,4.415 -3.592,8.007 -8.007,8.007 -4.415,0 -8.007,-3.592 -8.007,-8.007 0.001,-4.415 3.592,-8.008 8.007,-8.008 z"/><path id="path6538-402-3-2-61" d="m 280.346,92.234 c 0,-13.265 -10.792,-24.056 -24.056,-24.056 H 112.013 c -13.264,0 -24.055,10.792 -24.055,24.056 0,13.263 10.791,24.053 24.055,24.053 h 144.278 c 13.264,0 24.055,-10.79 24.055,-24.053 z m -176.388,0 c 0,-4.442 3.613,-8.056 8.055,-8.056 h 144.278 c 4.442,0 8.056,3.614 8.056,8.056 0,4.44 -3.614,8.053 -8.056,8.053 H 112.013 c -4.442,0 -8.055,-3.613 -8.055,-8.053 z"/></g><g id="g6528-7-3-36" transform="matrix(0.1451581,0,0,0.12320773,293.99383,499.47017)"><path id="path6530-6-8-9" d="m 390.083,148.075 c 18.716,0 33.942,-15.227 33.942,-33.942 l 0,-44.053 c 0,-18.716 -15.227,-33.942 -33.942,-33.942 l -356.14,0 C 15.227,36.138 0,51.365 0,70.08 l 0,44.053 c 0,18.716 15.227,33.942 33.943,33.942 118.33508,0.47034 250.19899,0.0934 356.14,0.002 z M 16,114.133 16,70.08 c 0,-9.894 8.049,-17.942 17.943,-17.942 l 356.141,0 c 9.894,0 17.942,8.049 17.942,17.942 l 0,44.053 c 0,9.894 -8.049,17.942 -17.942,17.942 l -356.141,0 C 24.049,132.075 16,124.027 16,114.133 z"/><path id="path6532-0-5-6" d="m 56.028,68.053 c -13.237,0 -24.007,10.77 -24.007,24.008 0,13.237 10.77,24.007 24.007,24.007 13.238,0 24.007,-10.77 24.007,-24.007 C 80.036,78.823 69.266,68.053 56.028,68.053 z m 0,32.015 c -4.415,0 -8.007,-3.592 -8.007,-8.007 0,-4.415 3.592,-8.008 8.007,-8.008 4.415,0 8.007,3.592 8.007,8.008 0.001,4.415 -3.592,8.007 -8.007,8.007 z"/><path id="path6534-8-6-3" d="m 367.885,116.068 c 13.238,0 24.008,-10.77 24.008,-24.007 0,-13.238 -10.77,-24.008 -24.008,-24.008 -13.237,0 -24.006,10.77 -24.006,24.008 -0.001,13.237 10.768,24.007 24.006,24.007 z m 0,-32.015 c 4.416,0 8.008,3.592 8.008,8.008 0,4.415 -3.592,8.007 -8.008,8.007 -4.415,0 -8.006,-3.592 -8.006,-8.007 -0.001,-4.415 3.591,-8.008 8.006,-8.008 z"/><path id="path6536-80-9-05" d="m 312.027,116.068 c 13.238,0 24.007,-10.77 24.007,-24.007 0,-13.238 -10.77,-24.008 -24.007,-24.008 -13.237,0 -24.007,10.77 -24.007,24.008 0.001,13.237 10.77,24.007 24.007,24.007 z m 0,-32.015 c 4.415,0 8.007,3.592 8.007,8.008 0,4.415 -3.592,8.007 -8.007,8.007 -4.415,0 -8.007,-3.592 -8.007,-8.007 0.001,-4.415 3.592,-8.008 8.007,-8.008 z"/><path id="path6538-402-3-4" d="m 280.346,92.234 c 0,-13.265 -10.792,-24.056 -24.056,-24.056 H 112.013 c -13.264,0 -24.055,10.792 -24.055,24.056 0,13.263 10.791,24.053 24.055,24.053 h 144.278 c 13.264,0 24.055,-10.79 24.055,-24.053 z m -176.388,0 c 0,-4.442 3.613,-8.056 8.055,-8.056 h 144.278 c 4.442,0 8.056,3.614 8.056,8.056 0,4.44 -3.614,8.053 -8.056,8.053 H 112.013 c -4.442,0 -8.055,-3.613 -8.055,-8.053 z"/></g><g id="g6528-7-3-35-2" transform="matrix(0.1451581,0,0,0.12320773,294.45254,526.07155)"><path id="path6530-6-8-8-2" d="m 390.083,148.075 c 18.716,0 33.942,-15.227 33.942,-33.942 l 0,-44.053 c 0,-18.716 -15.227,-33.942 -33.942,-33.942 l -356.14,0 C 15.227,36.138 0,51.365 0,70.08 l 0,44.053 c 0,18.716 15.227,33.942 33.943,33.942 118.33508,0.47034 250.19899,0.0934 356.14,0.002 z M 16,114.133 16,70.08 c 0,-9.894 8.049,-17.942 17.943,-17.942 l 356.141,0 c 9.894,0 17.942,8.049 17.942,17.942 l 0,44.053 c 0,9.894 -8.049,17.942 -17.942,17.942 l -356.141,0 C 24.049,132.075 16,124.027 16,114.133 z"/><path id="path6532-0-5-0-09" d="m 56.028,68.053 c -13.237,0 -24.007,10.77 -24.007,24.008 0,13.237 10.77,24.007 24.007,24.007 13.238,0 24.007,-10.77 24.007,-24.007 C 80.036,78.823 69.266,68.053 56.028,68.053 z m 0,32.015 c -4.415,0 -8.007,-3.592 -8.007,-8.007 0,-4.415 3.592,-8.008 8.007,-8.008 4.415,0 8.007,3.592 8.007,8.008 0.001,4.415 -3.592,8.007 -8.007,8.007 z"/><path id="path6534-8-6-4-519" d="m 367.885,116.068 c 13.238,0 24.008,-10.77 24.008,-24.007 0,-13.238 -10.77,-24.008 -24.008,-24.008 -13.237,0 -24.006,10.77 -24.006,24.008 -0.001,13.237 10.768,24.007 24.006,24.007 z m 0,-32.015 c 4.416,0 8.008,3.592 8.008,8.008 0,4.415 -3.592,8.007 -8.008,8.007 -4.415,0 -8.006,-3.592 -8.006,-8.007 -0.001,-4.415 3.591,-8.008 8.006,-8.008 z"/><path id="path6536-80-9-5-1" d="m 312.027,116.068 c 13.238,0 24.007,-10.77 24.007,-24.007 0,-13.238 -10.77,-24.008 -24.007,-24.008 -13.237,0 -24.007,10.77 -24.007,24.008 0.001,13.237 10.77,24.007 24.007,24.007 z m 0,-32.015 c 4.415,0 8.007,3.592 8.007,8.008 0,4.415 -3.592,8.007 -8.007,8.007 -4.415,0 -8.007,-3.592 -8.007,-8.007 0.001,-4.415 3.592,-8.008 8.007,-8.008 z"/><path id="path6538-402-3-2-2" d="m 280.346,92.234 c 0,-13.265 -10.792,-24.056 -24.056,-24.056 H 112.013 c -13.264,0 -24.055,10.792 -24.055,24.056 0,13.263 10.791,24.053 24.055,24.053 h 144.278 c 13.264,0 24.055,-10.79 24.055,-24.053 z m -176.388,0 c 0,-4.442 3.613,-8.056 8.055,-8.056 h 144.278 c 4.442,0 8.056,3.614 8.056,8.056 0,4.44 -3.614,8.053 -8.056,8.053 H 112.013 c -4.442,0 -8.055,-3.613 -8.055,-8.053 z"/></g><path style="fill:#010002" id="path3959-2-6-4-0-1-6-0" d="m 81.530588,311.04129 -12.32057,0 0,-1.72423 12.32057,0 z m 0,1.12441 -12.32057,0 0,1.72755 12.32057,0 z m -0.004,-7.82132 -12.30173,0 0,3.79872 12.30173,0 z m 3.93585,-4.08408 0,40.71613 c -9.4e-4,0.61004 -0.5507,1.10727 -1.22582,1.10727 l -17.72181,0 c -0.67704,0 -1.22392,-0.49743 -1.22392,-1.109 l 0,-40.7144 c 0,-0.61176 0.54688,-1.11074 1.22392,-1.11074 l 17.72181,0 c 0.67702,0 1.22582,0.49903 1.22582,1.11074 z m -2.44979,1.10563 -15.27579,0 0,38.49975 15.27579,0 z m -1.47853,13.65007 -12.32055,0 0,1.72249 12.32055,0 z m -2.00465,12.8469 c 0,1.98567 -1.7708,3.58682 -3.95469,3.58682 -2.18765,0 -3.95854,-1.60288 -3.95854,-3.58682 0,-1.97882 1.77281,-3.58509 3.95854,-3.58509 2.18389,0 3.95469,1.608 3.95469,3.58509 z m -1.42762,0 c 0,-1.26282 -1.13149,-2.29153 -2.52899,-2.29153 -1.39928,0 -2.53087,1.027 -2.53087,2.29153 0,1.26452 1.13159,2.28987 2.53087,2.28987 1.3975,0 2.52899,-1.02535 2.52899,-2.28987 z"/><path style="fill:#010002" id="path3959-2-6-4-0-1-6-4" d="m 120.03059,311.04129 -12.32057,0 0,-1.72423 12.32057,0 z m 0,1.12441 -12.32057,0 0,1.72755 12.32057,0 z m -0.004,-7.82132 -12.30173,0 0,3.79872 12.30173,0 z m 3.93585,-4.08408 0,40.71613 c -9.4e-4,0.61004 -0.5507,1.10727 -1.22582,1.10727 l -17.72181,0 c -0.67704,0 -1.22392,-0.49743 -1.22392,-1.109 l 0,-40.7144 c 0,-0.61176 0.54688,-1.11074 1.22392,-1.11074 l 17.72181,0 c 0.67702,0 1.22582,0.49903 1.22582,1.11074 z m -2.44979,1.10563 -15.27579,0 0,38.49975 15.27579,0 z m -1.47853,13.65007 -12.32055,0 0,1.72249 12.32055,0 z m -2.00465,12.8469 c 0,1.98567 -1.7708,3.58682 -3.95469,3.58682 -2.18765,0 -3.95854,-1.60288 -3.95854,-3.58682 0,-1.97882 1.77281,-3.58509 3.95854,-3.58509 2.18389,0 3.95469,1.608 3.95469,3.58509 z m -1.42762,0 c 0,-1.26282 -1.13149,-2.29153 -2.52899,-2.29153 -1.39928,0 -2.53087,1.027 -2.53087,2.29153 0,1.26452 1.13159,2.28987 2.53087,2.28987 1.3975,0 2.52899,-1.02535 2.52899,-2.28987 z"/><rect id="rect6034-3-8-0" width="132.95" height="69.95" x="240.399" y="293.165" rx="7.2" style="opacity:.89961392;fill:none;stroke:#000;stroke-width:2.05021477;stroke-miterlimit:4;stroke-opacity:1;stroke-dasharray:none"/><text id="text6218-8-6-1-9" x="308" y="357.152" xml:space="preserve" style="font-size:12px;font-style:normal;font-weight:700;line-height:125%;letter-spacing:0;word-spacing:0;fill:#000;fill-opacity:1;stroke:none;font-family:Sans;-inkscape-font-specification:Sans Bold"><tspan style="font-size:10px;font-weight:700;text-align:center;text-anchor:middle;-inkscape-font-specification:Times New Roman;font-family:Times New Roman;font-style:normal;font-stretch:normal;font-variant:normal" id="tspan6243-9-39-0" x="308" y="357.152">ZooKeeper Nodes</tspan></text><path style="fill:#010002" id="path3959-2-6-4-0-1-6-5" d="m 350.53059,311.63411 -12.32057,0 0,-1.72422 12.32057,0 z m 0,1.12442 -12.32057,0 0,1.72755 12.32057,0 z m -0.004,-7.82133 -12.30173,0 0,3.79873 12.30173,0 z m 3.93585,-4.08408 0,40.71613 c -9.4e-4,0.61005 -0.5507,1.10728 -1.22582,1.10728 l -17.72181,0 c -0.67704,0 -1.22392,-0.49743 -1.22392,-1.109 l 0,-40.7144 c 0,-0.61176 0.54688,-1.11074 1.22392,-1.11074 l 17.72181,0 c 0.67702,0 1.22582,0.49903 1.22582,1.11074 z m -2.44979,1.10563 -15.27579,0 0,38.49975 15.27579,0 z m -1.47853,13.65008 -12.32055,0 0,1.72249 12.32055,0 z m -2.00465,12.8469 c 0,1.98567 -1.7708,3.58682 -3.95469,3.58682 -2.18765,0 -3.95854,-1.60289 -3.95854,-3.58682 0,-1.97882 1.77281,-3.58509 3.95854,-3.58509 2.18389,0 3.95469,1.608 3.95469,3.58509 z m -1.42762,0 c 0,-1.26282 -1.13149,-2.29154 -2.52899,-2.29154 -1.39928,0 -2.53087,1.027 -2.53087,2.29154 0,1.26452 1.13159,2.28987 2.53087,2.28987 1.3975,0 2.52899,-1.02535 2.52899,-2.28987 z"/><path style="fill:#010002" id="path3959-2-6-4-0-1-6-0-9" d="m 273.53059,311.63411 -12.32057,0 0,-1.72422 12.32057,0 z m 0,1.12442 -12.32057,0 0,1.72755 12.32057,0 z m -0.004,-7.82133 -12.30173,0 0,3.79873 12.30173,0 z m 3.93585,-4.08408 0,40.71613 c -9.4e-4,0.61005 -0.5507,1.10728 -1.22582,1.10728 l -17.72181,0 c -0.67704,0 -1.22392,-0.49743 -1.22392,-1.109 l 0,-40.7144 c 0,-0.61176 0.54688,-1.11074 1.22392,-1.11074 l 17.72181,0 c 0.67702,0 1.22582,0.49903 1.22582,1.11074 z m -2.44979,1.10563 -15.27579,0 0,38.49975 15.27579,0 z m -1.47853,13.65008 -12.32055,0 0,1.72249 12.32055,0 z m -2.00465,12.8469 c 0,1.98567 -1.7708,3.58682 -3.95469,3.58682 -2.18765,0 -3.95854,-1.60289 -3.95854,-3.58682 0,-1.97882 1.77281,-3.58509 3.95854,-3.58509 2.18389,0 3.95469,1.608 3.95469,3.58509 z m -1.42762,0 c 0,-1.26282 -1.13149,-2.29154 -2.52899,-2.29154 -1.39928,0 -2.53087,1.027 -2.53087,2.29154 0,1.26452 1.13159,2.28987 2.53087,2.28987 1.3975,0 2.52899,-1.02535 2.52899,-2.28987 z"/><path style="fill:#010002" id="path3959-2-6-4-0-1-6-4-6" d="m 312.0306,311.63411 -12.32057,0 0,-1.72422 12.32057,0 z m 0,1.12442 -12.32057,0 0,1.72755 12.32057,0 z m -0.004,-7.82133 -12.30173,0 0,3.79873 12.30173,0 z m 3.93585,-4.08408 0,40.71613 c -9.4e-4,0.61005 -0.5507,1.10728 -1.22582,1.10728 l -17.72181,0 c -0.67704,0 -1.22392,-0.49743 -1.22392,-1.109 l 0,-40.7144 c 0,-0.61176 0.54688,-1.11074 1.22392,-1.11074 l 17.72181,0 c 0.67702,0 1.22582,0.49903 1.22582,1.11074 z m -2.44979,1.10563 -15.27579,0 0,38.49975 15.27579,0 z m -1.47853,13.65008 -12.32055,0 0,1.72249 12.32055,0 z m -2.00465,12.8469 c 0,1.98567 -1.7708,3.58682 -3.95469,3.58682 -2.18765,0 -3.95854,-1.60289 -3.95854,-3.58682 0,-1.97882 1.77281,-3.58509 3.95854,-3.58509 2.18389,0 3.95469,1.608 3.95469,3.58509 z m -1.42762,0 c 0,-1.26282 -1.13149,-2.29154 -2.52899,-2.29154 -1.39928,0 -2.53087,1.027 -2.53087,2.29154 0,1.26452 1.13159,2.28987 2.53087,2.28987 1.3975,0 2.52899,-1.02535 2.52899,-2.28987 z"/><path style="fill:#010002" id="path3959-2-6-4-0-1-6-0-9-9" d="m 262.24585,410.02461 -12.32057,0 0,-1.72423 12.32057,0 z m 0,1.12441 -12.32057,0 0,1.72755 12.32057,0 z m -0.004,-7.82132 -12.30173,0 0,3.79873 12.30173,0 z m 3.93585,-4.08408 0,40.71613 c -9.4e-4,0.61004 -0.5507,1.10727 -1.22582,1.10727 l -17.72181,0 c -0.67704,0 -1.22392,-0.49743 -1.22392,-1.109 l 0,-40.7144 c 0,-0.61176 0.54688,-1.11074 1.22392,-1.11074 l 17.72181,0 c 0.67702,0 1.22582,0.49903 1.22582,1.11074 z m -2.44979,1.10563 -15.27579,0 0,38.49975 15.27579,0 z m -1.47853,13.65007 -12.32055,0 0,1.72249 12.32055,0 z m -2.00465,12.8469 c 0,1.98567 -1.7708,3.58682 -3.95469,3.58682 -2.18765,0 -3.95854,-1.60288 -3.95854,-3.58682 0,-1.97882 1.77281,-3.58509 3.95854,-3.58509 2.18389,0 3.95469,1.608 3.95469,3.58509 z m -1.42762,0 c 0,-1.26282 -1.13149,-2.29153 -2.52899,-2.29153 -1.39928,0 -2.53087,1.027 -2.53087,2.29153 0,1.26452 1.13159,2.28987 2.53087,2.28987 1.3975,0 2.52899,-1.02535 2.52899,-2.28987 z"/><path style="fill:#010002" id="path3959-2-6-4-0-1-6-4-6-7" d="m 338.10105,411.14547 -12.32057,0 0,-1.72423 12.32057,0 z m 0,1.12441 -12.32057,0 0,1.72755 12.32057,0 z m -0.004,-7.82132 -12.30173,0 0,3.79873 12.30173,0 z m 3.93585,-4.08408 0,40.71613 c -9.4e-4,0.61004 -0.5507,1.10727 -1.22582,1.10727 l -17.72181,0 c -0.67704,0 -1.22392,-0.49743 -1.22392,-1.109 l 0,-40.7144 c 0,-0.61176 0.54688,-1.11074 1.22392,-1.11074 l 17.72181,0 c 0.67702,0 1.22582,0.49903 1.22582,1.11074 z m -2.44979,1.10563 -15.27579,0 0,38.49975 15.27579,0 z m -1.47853,13.65007 -12.32055,0 0,1.72249 12.32055,0 z m -2.00465,12.8469 c 0,1.98567 -1.7708,3.58682 -3.95469,3.58682 -2.18765,0 -3.95854,-1.60288 -3.95854,-3.58682 0,-1.97882 1.77281,-3.58509 3.95854,-3.58509 2.18389,0 3.95469,1.608 3.95469,3.58509 z m -1.42762,0 c 0,-1.26282 -1.13149,-2.29153 -2.52899,-2.29153 -1.39928,0 -2.53087,1.027 -2.53087,2.29153 0,1.26452 1.13159,2.28987 2.53087,2.28987 1.3975,0 2.52899,-1.02535 2.52899,-2.28987 z"/><path style="fill:#010002" id="path3959-2-6-4-0-1-6-0-9-8" d="m 701.08852,414.17439 -12.32057,0 0,-1.72423 12.32057,0 z m 0,1.12441 -12.32057,0 0,1.72755 12.32057,0 z m -0.004,-7.82132 -12.30173,0 0,3.79872 12.30173,0 z m 3.93585,-4.08409 0,40.71613 c -9.4e-4,0.61005 -0.5507,1.10728 -1.22582,1.10728 l -17.72181,0 c -0.67704,0 -1.22392,-0.49743 -1.22392,-1.109 l 0,-40.7144 c 0,-0.61176 0.54688,-1.11074 1.22392,-1.11074 l 17.72181,0 c 0.67702,0 1.22582,0.49903 1.22582,1.11074 z m -2.44979,1.10563 -15.27579,0 0,38.49976 15.27579,0 z m -1.47853,13.65008 -12.32055,0 0,1.72249 12.32055,0 z m -2.00465,12.8469 c 0,1.98567 -1.7708,3.58682 -3.95469,3.58682 -2.18765,0 -3.95854,-1.60289 -3.95854,-3.58682 0,-1.97882 1.77281,-3.58509 3.95854,-3.58509 2.18389,0 3.95469,1.608 3.95469,3.58509 z m -1.42762,0 c 0,-1.26282 -1.13149,-2.29153 -2.52899,-2.29153 -1.39928,0 -2.53087,1.02699 -2.53087,2.29153 0,1.26452 1.13159,2.28987 2.53087,2.28987 1.3975,0 2.52899,-1.02535 2.52899,-2.28987 z"/><path style="fill:#010002" id="path3959-2-6-4-0-1-6-4-6-2" d="m 738.74362,414.17438 -12.32057,0 0,-1.72423 12.32057,0 z m 0,1.12441 -12.32057,0 0,1.72755 12.32057,0 z m -0.004,-7.82132 -12.30173,0 0,3.79873 12.30173,0 z m 3.93585,-4.08408 0,40.71613 c -9.4e-4,0.61005 -0.5507,1.10728 -1.22582,1.10728 l -17.72181,0 c -0.67704,0 -1.22392,-0.49743 -1.22392,-1.109 l 0,-40.7144 c 0,-0.61176 0.54688,-1.11074 1.22392,-1.11074 l 17.72181,0 c 0.67702,0 1.22582,0.49903 1.22582,1.11074 z m -2.44979,1.10563 -15.27579,0 0,38.49976 15.27579,0 z m -1.47853,13.65008 -12.32055,0 0,1.72249 12.32055,0 z m -2.00465,12.8469 c 0,1.98567 -1.7708,3.58682 -3.95469,3.58682 -2.18765,0 -3.95854,-1.60289 -3.95854,-3.58682 0,-1.97882 1.77281,-3.58509 3.95854,-3.58509 2.18389,0 3.95469,1.608 3.95469,3.58509 z m -1.42762,0 c 0,-1.26282 -1.13149,-2.29153 -2.52899,-2.29153 -1.39928,0 -2.53087,1.02699 -2.53087,2.29153 0,1.26452 1.13159,2.28987 2.53087,2.28987 1.3975,0 2.52899,-1.02535 2.52899,-2.28987 z"/><path style="fill:#010002" id="path3959-2-6-4-0-1-6-0-9-90" d="m 776.3987,414.17438 -12.32057,0 0,-1.72423 12.32057,0 z m 0,1.12441 -12.32057,0 0,1.72755 12.32057,0 z m -0.004,-7.82132 -12.30173,0 0,3.79873 12.30173,0 z m 3.93585,-4.08408 0,40.71613 c -9.4e-4,0.61005 -0.5507,1.10728 -1.22582,1.10728 l -17.72181,0 c -0.67704,0 -1.22392,-0.49743 -1.22392,-1.109 l 0,-40.7144 c 0,-0.61176 0.54688,-1.11074 1.22392,-1.11074 l 17.72181,0 c 0.67702,0 1.22582,0.49903 1.22582,1.11074 z m -2.44979,1.10563 -15.27579,0 0,38.49976 15.27579,0 z m -1.47853,13.65008 -12.32055,0 0,1.72249 12.32055,0 z m -2.00465,12.8469 c 0,1.98567 -1.7708,3.58682 -3.95469,3.58682 -2.18765,0 -3.95854,-1.60289 -3.95854,-3.58682 0,-1.97882 1.77281,-3.58509 3.95854,-3.58509 2.18389,0 3.95469,1.608 3.95469,3.58509 z m -1.42762,0 c 0,-1.26282 -1.13149,-2.29153 -2.52899,-2.29153 -1.39928,0 -2.53087,1.02699 -2.53087,2.29153 0,1.26452 1.13159,2.28987 2.53087,2.28987 1.3975,0 2.52899,-1.02535 2.52899,-2.28987 z"/><path style="fill:#010002" id="path3959-2-6-4-0-1-6-4-6-24" d="m 814.05374,414.17439 -12.32057,0 0,-1.72423 12.32057,0 z m 0,1.12441 -12.32057,0 0,1.72755 12.32057,0 z m -0.004,-7.82132 -12.30173,0 0,3.79872 12.30173,0 z m 3.93585,-4.08409 0,40.71613 c -9.4e-4,0.61005 -0.5507,1.10728 -1.22582,1.10728 l -17.72181,0 c -0.67704,0 -1.22392,-0.49743 -1.22392,-1.109 l 0,-40.7144 c 0,-0.61176 0.54688,-1.11074 1.22392,-1.11074 l 17.72181,0 c 0.67702,0 1.22582,0.49903 1.22582,1.11074 z m -2.44979,1.10563 -15.27579,0 0,38.49976 15.27579,0 z m -1.47853,13.65008 -12.32055,0 0,1.72249 12.32055,0 z m -2.00465,12.8469 c 0,1.98567 -1.7708,3.58682 -3.95469,3.58682 -2.18765,0 -3.95854,-1.60289 -3.95854,-3.58682 0,-1.97882 1.77281,-3.58509 3.95854,-3.58509 2.18389,0 3.95469,1.608 3.95469,3.58509 z m -1.42762,0 c 0,-1.26282 -1.13149,-2.29153 -2.52899,-2.29153 -1.39928,0 -2.53087,1.02699 -2.53087,2.29153 0,1.26452 1.13159,2.28987 2.53087,2.28987 1.3975,0 2.52899,-1.02535 2.52899,-2.28987 z"/><path style="fill:#010002" id="path3959-2-6-4-0-1-6-0-9-8-6" d="m 696.08856,312.84333 -12.32057,0 0,-1.72423 12.32057,0 z m 0,1.12441 -12.32057,0 0,1.72755 12.32057,0 z m -0.004,-7.82132 -12.30173,0 0,3.79873 12.30173,0 z m 3.93585,-4.08408 0,40.71613 c -9.4e-4,0.61004 -0.5507,1.10727 -1.22582,1.10727 l -17.72181,0 c -0.67704,0 -1.22392,-0.49743 -1.22392,-1.109 l 0,-40.7144 c 0,-0.61176 0.54688,-1.11074 1.22392,-1.11074 l 17.72181,0 c 0.67702,0 1.22582,0.49903 1.22582,1.11074 z m -2.44979,1.10563 -15.27579,0 0,38.49975 15.27579,0 z m -1.47853,13.65007 -12.32055,0 0,1.72249 12.32055,0 z m -2.00465,12.8469 c 0,1.98568 -1.7708,3.58682 -3.95469,3.58682 -2.18765,0 -3.95854,-1.60288 -3.95854,-3.58682 0,-1.97882 1.77281,-3.58509 3.95854,-3.58509 2.18389,0 3.95469,1.60801 3.95469,3.58509 z m -1.42762,0 c 0,-1.26282 -1.13149,-2.29153 -2.52899,-2.29153 -1.39928,0 -2.53087,1.027 -2.53087,2.29153 0,1.26452 1.13159,2.28987 2.53087,2.28987 1.3975,0 2.52899,-1.02535 2.52899,-2.28987 z"/><path style="fill:#010002" id="path3959-2-6-4-0-1-6-4-6-2-5" d="m 733.7439,312.84333 -12.32057,0 0,-1.72423 12.32057,0 z m 0,1.12441 -12.32057,0 0,1.72755 12.32057,0 z m -0.004,-7.82132 -12.30173,0 0,3.79873 12.30173,0 z m 3.93585,-4.08408 0,40.71613 c -9.4e-4,0.61004 -0.5507,1.10727 -1.22582,1.10727 l -17.72181,0 c -0.67704,0 -1.22392,-0.49743 -1.22392,-1.109 l 0,-40.7144 c 0,-0.61176 0.54688,-1.11074 1.22392,-1.11074 l 17.72181,0 c 0.67702,0 1.22582,0.49903 1.22582,1.11074 z m -2.44979,1.10563 -15.27579,0 0,38.49975 15.27579,0 z m -1.47853,13.65007 -12.32055,0 0,1.72249 12.32055,0 z m -2.00465,12.8469 c 0,1.98568 -1.7708,3.58682 -3.95469,3.58682 -2.18765,0 -3.95854,-1.60288 -3.95854,-3.58682 0,-1.97882 1.77281,-3.58509 3.95854,-3.58509 2.18389,0 3.95469,1.60801 3.95469,3.58509 z m -1.42762,0 c 0,-1.26282 -1.13149,-2.29153 -2.52899,-2.29153 -1.39928,0 -2.53087,1.027 -2.53087,2.29153 0,1.26452 1.13159,2.28987 2.53087,2.28987 1.3975,0 2.52899,-1.02535 2.52899,-2.28987 z"/><path style="fill:#010002" id="path3959-2-6-4-0-1-6-0-9-90-5" d="m 771.39929,312.84333 -12.32057,0 0,-1.72423 12.32057,0 z m 0,1.12441 -12.32057,0 0,1.72755 12.32057,0 z m -0.004,-7.82132 -12.30173,0 0,3.79873 12.30173,0 z m 3.93585,-4.08408 0,40.71613 c -9.4e-4,0.61004 -0.5507,1.10727 -1.22582,1.10727 l -17.72181,0 c -0.67704,0 -1.22392,-0.49743 -1.22392,-1.109 l 0,-40.7144 c 0,-0.61176 0.54688,-1.11074 1.22392,-1.11074 l 17.72181,0 c 0.67702,0 1.22582,0.49903 1.22582,1.11074 z m -2.44979,1.10563 -15.27579,0 0,38.49975 15.27579,0 z m -1.47853,13.65007 -12.32055,0 0,1.72249 12.32055,0 z m -2.00465,12.8469 c 0,1.98568 -1.7708,3.58682 -3.95469,3.58682 -2.18765,0 -3.95854,-1.60288 -3.95854,-3.58682 0,-1.97882 1.77281,-3.58509 3.95854,-3.58509 2.18389,0 3.95469,1.60801 3.95469,3.58509 z m -1.42762,0 c 0,-1.26282 -1.13149,-2.29153 -2.52899,-2.29153 -1.39928,0 -2.53087,1.027 -2.53087,2.29153 0,1.26452 1.13159,2.28987 2.53087,2.28987 1.3975,0 2.52899,-1.02535 2.52899,-2.28987 z"/><path style="fill:#010002" id="path3959-2-6-4-0-1-6-4-6-24-0" d="m 809.05463,312.84333 -12.32057,0 0,-1.72423 12.32057,0 z m 0,1.12441 -12.32057,0 0,1.72755 12.32057,0 z m -0.004,-7.82132 -12.30173,0 0,3.79873 12.30173,0 z m 3.93585,-4.08408 0,40.71613 c -9.4e-4,0.61004 -0.5507,1.10727 -1.22582,1.10727 l -17.72181,0 c -0.67704,0 -1.22392,-0.49743 -1.22392,-1.109 l 0,-40.7144 c 0,-0.61176 0.54688,-1.11074 1.22392,-1.11074 l 17.72181,0 c 0.67702,0 1.22582,0.49903 1.22582,1.11074 z m -2.44979,1.10563 -15.27579,0 0,38.49975 15.27579,0 z m -1.47853,13.65007 -12.32055,0 0,1.72249 12.32055,0 z m -2.00465,12.8469 c 0,1.98568 -1.7708,3.58682 -3.95469,3.58682 -2.18765,0 -3.95854,-1.60288 -3.95854,-3.58682 0,-1.97882 1.77281,-3.58509 3.95854,-3.58509 2.18389,0 3.95469,1.60801 3.95469,3.58509 z m -1.42762,0 c 0,-1.26282 -1.13149,-2.29153 -2.52899,-2.29153 -1.39928,0 -2.53087,1.027 -2.53087,2.29153 0,1.26452 1.13159,2.28987 2.53087,2.28987 1.3975,0 2.52899,-1.02535 2.52899,-2.28987 z"/><path style="fill:#010002" id="path3959-2-6-4-0-1-6-0-9-4-4" d="m 846.70998,312.84333 -12.32057,0 0,-1.72423 12.32057,0 z m 0,1.12441 -12.32057,0 0,1.72755 12.32057,0 z m -0.004,-7.82132 -12.30173,0 0,3.79873 12.30173,0 z m 3.93585,-4.08408 0,40.71613 c -9.4e-4,0.61004 -0.5507,1.10727 -1.22582,1.10727 l -17.72181,0 c -0.67704,0 -1.22392,-0.49743 -1.22392,-1.109 l 0,-40.7144 c 0,-0.61176 0.54688,-1.11074 1.22392,-1.11074 l 17.72181,0 c 0.67702,0 1.22582,0.49903 1.22582,1.11074 z m -2.44979,1.10563 -15.27579,0 0,38.49975 15.27579,0 z m -1.47853,13.65007 -12.32055,0 0,1.72249 12.32055,0 z m -2.00465,12.8469 c 0,1.98568 -1.7708,3.58682 -3.95469,3.58682 -2.18765,0 -3.95854,-1.60288 -3.95854,-3.58682 0,-1.97882 1.77281,-3.58509 3.95854,-3.58509 2.18389,0 3.95469,1.60801 3.95469,3.58509 z m -1.42762,0 c 0,-1.26282 -1.13149,-2.29153 -2.52899,-2.29153 -1.39928,0 -2.53087,1.027 -2.53087,2.29153 0,1.26452 1.13159,2.28987 2.53087,2.28987 1.3975,0 2.52899,-1.02535 2.52899,-2.28987 z"/><rect id="rect8004-1-3" width="101.217" height="48.028" x="-155.439" y="405.937" rx="13.391" transform="scale(-1,1)" style="fill:#fff;fill-opacity:1;stroke:#000;stroke-width:.7485553;stroke-miterlimit:4;stroke-opacity:1;stroke-dasharray:none"/><rect id="rect8004-8-4" width="101.194" height="51.059" x="-159.397" y="398.047" rx="13.388" transform="scale(-1,1)" style="fill:#fff;fill-opacity:1;stroke:#000;stroke-width:.77172285;stroke-miterlimit:4;stroke-opacity:1;stroke-dasharray:none"/><rect id="rect8004-7" width="101.182" height="52.676" x="-163.87" y="392.774" rx="13.387" transform="scale(-1,1)" style="fill:#fff;fill-opacity:1;stroke:#000;stroke-width:.78379786;stroke-miterlimit:4;stroke-opacity:1;stroke-dasharray:none"/><text id="text9588-16" x="75" y="420" xml:space="preserve" style="font-size:10px;font-style:normal;font-weight:700;line-height:125%;letter-spacing:0;word-spacing:0;fill:#000;fill-opacity:1;stroke:none;font-family:Sans;-inkscape-font-specification:Sans Bold"><tspan style="-inkscape-font-specification:Times New Roman;font-family:Times New Roman" id="tspan9590-5" x="75" y="420">HDFS Client</tspan></text><flowRoot style="fill:#000;stroke:none;stroke-opacity:1;stroke-width:1px;stroke-linejoin:miter;stroke-linecap:butt;fill-opacity:1;font-family:Courier 10 Pitch;font-style:normal;font-weight:700;font-size:12px;line-height:125%;letter-spacing:0;word-spacing:0;-inkscape-font-specification:Sans Bold;font-stretch:normal;font-variant:normal" id="flowRoot13443" xml:space="preserve"><flowRegion id="flowRegion13445"><rect id="rect13447" width="337.952" height="105.864" x="536.651" y="241.378"/></flowRegion><flowPara id="flowPara13449"/></flowRoot><path id="path8089-8-5-2-9-5" d="m 93.326728,462.71462 0.15309,21.28881" style="fill:none;stroke:#000;stroke-width:2.24655008;stroke-linecap:butt;stroke-linejoin:miter;stroke-miterlimit:4;stroke-opacity:1;stroke-dasharray:none;marker-start:url(#EmptyTriangleInM);marker-mid:none;marker-end:url(#EmptyTriangleOutM)"/><path id="path8089-8-5-2-7-2" d="m 305.63002,462.71462 0.15309,21.28881" style="fill:none;stroke:#000;stroke-width:2.24655008;stroke-linecap:butt;stroke-linejoin:miter;stroke-miterlimit:4;stroke-opacity:1;stroke-dasharray:none;marker-start:url(#EmptyTriangleInM);marker-mid:none;marker-end:url(#EmptyTriangleOutM)"/><text id="text14201" x="180" y="593" xml:space="preserve" style="font-size:12px;font-style:normal;font-variant:normal;font-weight:700;font-stretch:normal;line-height:125%;letter-spacing:0;word-spacing:0;fill:#000;fill-opacity:1;stroke:none;font-family:Courier 10 Pitch;-inkscape-font-specification:Sans Bold"><tspan style="font-size:18px;font-style:normal;font-variant:normal;font-weight:700;font-stretch:normal;font-family:Times New Roman;-inkscape-font-specification:Times New Roman" id="tspan14203" x="180" y="593">HDFS</tspan></text><text id="text14201-9" x="694" y="593" xml:space="preserve" style="font-style:normal;font-variant:normal;font-weight:700;font-stretch:normal;font-size:12px;line-height:125%;font-family:'Courier 10 Pitch';-inkscape-font-specification:'Sans Bold';letter-spacing:0;word-spacing:0;fill:#000;fill-opacity:1;stroke:none"><tspan style="font-style:normal;font-variant:normal;font-weight:700;font-stretch:normal;font-size:18px;font-family:'Times New Roman';-inkscape-font-specification:'Times New Roman'" id="tspan14203-6" x="694" y="593">HopsFS</tspan></text><text id="text6218-8-6-7-6-1" x="-375.753" y="904.029" transform="matrix(0.00272927,-0.99999628,0.99999628,0.00272927,0,0)" xml:space="preserve" style="font-size:12px;font-style:normal;font-weight:700;line-height:125%;letter-spacing:0;word-spacing:0;fill:#000;fill-opacity:1;stroke:none;font-family:Sans;-inkscape-font-specification:Sans Bold"><tspan style="font-size:14px;font-weight:400;text-align:center;text-anchor:middle;font-family:Times New Roman;-inkscape-font-specification:Times New Roman" id="tspan6243-9-8-2-3" x="-375.753" y="904.029">Metadata Management</tspan></text><text id="text6218-8-6-7-6-1-3" x="-522.535" y="904.244" transform="matrix(0.00272927,-0.99999628,0.99999628,0.00272927,0,0)" xml:space="preserve" style="font-size:12px;font-style:normal;font-weight:700;line-height:125%;letter-spacing:0;word-spacing:0;fill:#000;fill-opacity:1;stroke:none;font-family:Sans;-inkscape-font-specification:Sans Bold"><tspan style="font-size:14px;font-weight:400;text-align:center;text-anchor:middle;font-family:Times New Roman;-inkscape-font-specification:Times New Roman" id="tspan6243-9-8-2-3-2" x="-522.535" y="904.244">Block Storage</tspan></text><path id="path14585" d="m 880.01354,295.45311 9.97292,0 0,168.30545 -9.97292,0" style="fill:none;stroke:#000;stroke-width:1.36152315;stroke-linecap:butt;stroke-linejoin:miter;stroke-miterlimit:4;stroke-opacity:1;stroke-dasharray:none"/><path id="path14585-1" d="m 880.25541,487.40646 10.30352,0 0,84.70944 -10.30352,0" style="fill:none;stroke:#000;stroke-width:1.24663413;stroke-linecap:butt;stroke-linejoin:miter;stroke-miterlimit:4;stroke-opacity:1;stroke-dasharray:none"/><path style="fill:#ff0002;fill-opacity:1" id="path3959-2-6-4-0-1-6-4-6-24-1" d="m 851.7088,414.17439 -12.32057,0 0,-1.72423 12.32057,0 z m 0,1.12441 -12.32057,0 0,1.72755 12.32057,0 z m -0.004,-7.82132 -12.30173,0 0,3.79872 12.30173,0 z m 3.93585,-4.08409 0,40.71613 c -9.4e-4,0.61005 -0.5507,1.10728 -1.22582,1.10728 l -17.72181,0 c -0.67704,0 -1.22392,-0.49743 -1.22392,-1.109 l 0,-40.7144 c 0,-0.61176 0.54688,-1.11074 1.22392,-1.11074 l 17.72181,0 c 0.67702,0 1.22582,0.49903 1.22582,1.11074 z m -2.44979,1.10563 -15.27579,0 0,38.49976 15.27579,0 z m -1.47853,13.65008 -12.32055,0 0,1.72249 12.32055,0 z m -2.00465,12.8469 c 0,1.98567 -1.7708,3.58682 -3.95469,3.58682 -2.18765,0 -3.95854,-1.60289 -3.95854,-3.58682 0,-1.97882 1.77281,-3.58509 3.95854,-3.58509 2.18389,0 3.95469,1.608 3.95469,3.58509 z m -1.42762,0 c 0,-1.26282 -1.13149,-2.29153 -2.52899,-2.29153 -1.39928,0 -2.53087,1.02699 -2.53087,2.29153 0,1.26452 1.13159,2.28987 2.53087,2.28987 1.3975,0 2.52899,-1.02535 2.52899,-2.28987 z"/><text id="text6218-8-6-7-8" x="844" y="457" xml:space="preserve" style="font-style:normal;font-weight:700;font-size:12px;line-height:125%;font-family:Sans;-inkscape-font-specification:'Sans Bold';letter-spacing:0;word-spacing:0;fill:#000;fill-opacity:1;stroke:none"><tspan style="font-weight:700;font-size:10px;font-family:'Times New Roman';-inkscape-font-specification:'Times New Roman';text-align:center;text-anchor:middle;fill:#fe0000;fill-opacity:1" id="tspan6243-9-8-8" x="844" y="457">Leader</tspan></text><text id="text6218-8-6-11" x="772.413" y="389.054" xml:space="preserve" style="font-style:normal;font-weight:700;font-size:12px;line-height:125%;font-family:Sans;-inkscape-font-specification:'Sans Bold';letter-spacing:0;word-spacing:0;fill:#000;fill-opacity:1;stroke:none"><tspan style="font-style:normal;font-weight:700;font-size:10px;font-family:'Times New Roman';-inkscape-font-specification:'Times New Roman';text-align:center;text-anchor:middle" id="tspan6243-9-0" x="772.413" y="389.054">DAL API</tspan></text><path id="path7660" d="m 672,395 195,0" style="display:inline;fill:none;stroke:#000;stroke-width:2.47900009;stroke-linecap:butt;stroke-linejoin:miter;stroke-miterlimit:4;stroke-dasharray:none;stroke-opacity:1"/><rect id="rect6403-8-4" width="327.539" height="83.452" x="540.638" y="487.776" rx="7.201" style="opacity:.89961392;fill:none;stroke:#000;stroke-width:2.06898355;stroke-miterlimit:4;stroke-opacity:1;stroke-dasharray:none"/><g id="g6528-7-3-6" transform="matrix(0.1451581,0,0,0.12320773,555.99383,499.24866)"><path id="path6530-6-8-1" d="m 390.083,148.075 c 18.716,0 33.942,-15.227 33.942,-33.942 l 0,-44.053 c 0,-18.716 -15.227,-33.942 -33.942,-33.942 l -356.14,0 C 15.227,36.138 0,51.365 0,70.08 l 0,44.053 c 0,18.716 15.227,33.942 33.943,33.942 118.33508,0.47034 250.19899,0.0934 356.14,0.002 z M 16,114.133 16,70.08 c 0,-9.894 8.049,-17.942 17.943,-17.942 l 356.141,0 c 9.894,0 17.942,8.049 17.942,17.942 l 0,44.053 c 0,9.894 -8.049,17.942 -17.942,17.942 l -356.141,0 C 24.049,132.075 16,124.027 16,114.133 z"/><path id="path6532-0-5-5" d="m 56.028,68.053 c -13.237,0 -24.007,10.77 -24.007,24.008 0,13.237 10.77,24.007 24.007,24.007 13.238,0 24.007,-10.77 24.007,-24.007 C 80.036,78.823 69.266,68.053 56.028,68.053 z m 0,32.015 c -4.415,0 -8.007,-3.592 -8.007,-8.007 0,-4.415 3.592,-8.008 8.007,-8.008 4.415,0 8.007,3.592 8.007,8.008 0.001,4.415 -3.592,8.007 -8.007,8.007 z"/><path id="path6534-8-6-72" d="m 367.885,116.068 c 13.238,0 24.008,-10.77 24.008,-24.007 0,-13.238 -10.77,-24.008 -24.008,-24.008 -13.237,0 -24.006,10.77 -24.006,24.008 -0.001,13.237 10.768,24.007 24.006,24.007 z m 0,-32.015 c 4.416,0 8.008,3.592 8.008,8.008 0,4.415 -3.592,8.007 -8.008,8.007 -4.415,0 -8.006,-3.592 -8.006,-8.007 -0.001,-4.415 3.591,-8.008 8.006,-8.008 z"/><path id="path6536-80-9-8" d="m 312.027,116.068 c 13.238,0 24.007,-10.77 24.007,-24.007 0,-13.238 -10.77,-24.008 -24.007,-24.008 -13.237,0 -24.007,10.77 -24.007,24.008 0.001,13.237 10.77,24.007 24.007,24.007 z m 0,-32.015 c 4.415,0 8.007,3.592 8.007,8.008 0,4.415 -3.592,8.007 -8.007,8.007 -4.415,0 -8.007,-3.592 -8.007,-8.007 0.001,-4.415 3.592,-8.008 8.007,-8.008 z"/><path id="path6538-402-3-8" d="m 280.346,92.234 c 0,-13.265 -10.792,-24.056 -24.056,-24.056 H 112.013 c -13.264,0 -24.055,10.792 -24.055,24.056 0,13.263 10.791,24.053 24.055,24.053 h 144.278 c 13.264,0 24.055,-10.79 24.055,-24.053 z m -176.388,0 c 0,-4.442 3.613,-8.056 8.055,-8.056 h 144.278 c 4.442,0 8.056,3.614 8.056,8.056 0,4.44 -3.614,8.053 -8.056,8.053 H 112.013 c -4.442,0 -8.055,-3.613 -8.055,-8.053 z"/></g><text id="text6218-6-1-3" x="681" y="562.779" xml:space="preserve" style="font-size:12px;font-style:normal;font-weight:700;line-height:125%;letter-spacing:0;word-spacing:0;fill:#000;fill-opacity:1;stroke:none;font-family:Sans;-inkscape-font-specification:Sans Bold"><tspan style="font-size:10px;font-weight:700;font-family:Times New Roman;-inkscape-font-specification:Times New Roman" id="tspan6220-2-9-6" x="681" y="562.779">DataNodes</tspan></text><g id="g6528-7-3-35-3" transform="matrix(0.1451581,0,0,0.12320773,556.45254,525.85004)"><path id="path6530-6-8-8-54" d="m 390.083,148.075 c 18.716,0 33.942,-15.227 33.942,-33.942 l 0,-44.053 c 0,-18.716 -15.227,-33.942 -33.942,-33.942 l -356.14,0 C 15.227,36.138 0,51.365 0,70.08 l 0,44.053 c 0,18.716 15.227,33.942 33.943,33.942 118.33508,0.47034 250.19899,0.0934 356.14,0.002 z M 16,114.133 16,70.08 c 0,-9.894 8.049,-17.942 17.943,-17.942 l 356.141,0 c 9.894,0 17.942,8.049 17.942,17.942 l 0,44.053 c 0,9.894 -8.049,17.942 -17.942,17.942 l -356.141,0 C 24.049,132.075 16,124.027 16,114.133 z"/><path id="path6532-0-5-0-1" d="m 56.028,68.053 c -13.237,0 -24.007,10.77 -24.007,24.008 0,13.237 10.77,24.007 24.007,24.007 13.238,0 24.007,-10.77 24.007,-24.007 C 80.036,78.823 69.266,68.053 56.028,68.053 z m 0,32.015 c -4.415,0 -8.007,-3.592 -8.007,-8.007 0,-4.415 3.592,-8.008 8.007,-8.008 4.415,0 8.007,3.592 8.007,8.008 0.001,4.415 -3.592,8.007 -8.007,8.007 z"/><path id="path6534-8-6-4-95" d="m 367.885,116.068 c 13.238,0 24.008,-10.77 24.008,-24.007 0,-13.238 -10.77,-24.008 -24.008,-24.008 -13.237,0 -24.006,10.77 -24.006,24.008 -0.001,13.237 10.768,24.007 24.006,24.007 z m 0,-32.015 c 4.416,0 8.008,3.592 8.008,8.008 0,4.415 -3.592,8.007 -8.008,8.007 -4.415,0 -8.006,-3.592 -8.006,-8.007 -0.001,-4.415 3.591,-8.008 8.006,-8.008 z"/><path id="path6536-80-9-5-0" d="m 312.027,116.068 c 13.238,0 24.007,-10.77 24.007,-24.007 0,-13.238 -10.77,-24.008 -24.007,-24.008 -13.237,0 -24.007,10.77 -24.007,24.008 0.001,13.237 10.77,24.007 24.007,24.007 z m 0,-32.015 c 4.415,0 8.007,3.592 8.007,8.008 0,4.415 -3.592,8.007 -8.007,8.007 -4.415,0 -8.007,-3.592 -8.007,-8.007 0.001,-4.415 3.592,-8.008 8.007,-8.008 z"/><path id="path6538-402-3-2-39" d="m 280.346,92.234 c 0,-13.265 -10.792,-24.056 -24.056,-24.056 H 112.013 c -13.264,0 -24.055,10.792 -24.055,24.056 0,13.263 10.791,24.053 24.055,24.053 h 144.278 c 13.264,0 24.055,-10.79 24.055,-24.053 z m -176.388,0 c 0,-4.442 3.613,-8.056 8.055,-8.056 h 144.278 c 4.442,0 8.056,3.614 8.056,8.056 0,4.44 -3.614,8.053 -8.056,8.053 H 112.013 c -4.442,0 -8.055,-3.613 -8.055,-8.053 z"/></g><g id="g6528-7-3-5-7" transform="matrix(0.1451581,0,0,0.12320773,631.99383,499.24866)"><path id="path6530-6-8-3-9" d="m 390.083,148.075 c 18.716,0 33.942,-15.227 33.942,-33.942 l 0,-44.053 c 0,-18.716 -15.227,-33.942 -33.942,-33.942 l -356.14,0 C 15.227,36.138 0,51.365 0,70.08 l 0,44.053 c 0,18.716 15.227,33.942 33.943,33.942 118.33508,0.47034 250.19899,0.0934 356.14,0.002 z M 16,114.133 16,70.08 c 0,-9.894 8.049,-17.942 17.943,-17.942 l 356.141,0 c 9.894,0 17.942,8.049 17.942,17.942 l 0,44.053 c 0,9.894 -8.049,17.942 -17.942,17.942 l -356.141,0 C 24.049,132.075 16,124.027 16,114.133 z"/><path id="path6532-0-5-4-4" d="m 56.028,68.053 c -13.237,0 -24.007,10.77 -24.007,24.008 0,13.237 10.77,24.007 24.007,24.007 13.238,0 24.007,-10.77 24.007,-24.007 C 80.036,78.823 69.266,68.053 56.028,68.053 z m 0,32.015 c -4.415,0 -8.007,-3.592 -8.007,-8.007 0,-4.415 3.592,-8.008 8.007,-8.008 4.415,0 8.007,3.592 8.007,8.008 0.001,4.415 -3.592,8.007 -8.007,8.007 z"/><path id="path6534-8-6-7-0" d="m 367.885,116.068 c 13.238,0 24.008,-10.77 24.008,-24.007 0,-13.238 -10.77,-24.008 -24.008,-24.008 -13.237,0 -24.006,10.77 -24.006,24.008 -0.001,13.237 10.768,24.007 24.006,24.007 z m 0,-32.015 c 4.416,0 8.008,3.592 8.008,8.008 0,4.415 -3.592,8.007 -8.008,8.007 -4.415,0 -8.006,-3.592 -8.006,-8.007 -0.001,-4.415 3.591,-8.008 8.006,-8.008 z"/><path id="path6536-80-9-62-8" d="m 312.027,116.068 c 13.238,0 24.007,-10.77 24.007,-24.007 0,-13.238 -10.77,-24.008 -24.007,-24.008 -13.237,0 -24.007,10.77 -24.007,24.008 0.001,13.237 10.77,24.007 24.007,24.007 z m 0,-32.015 c 4.415,0 8.007,3.592 8.007,8.008 0,4.415 -3.592,8.007 -8.007,8.007 -4.415,0 -8.007,-3.592 -8.007,-8.007 0.001,-4.415 3.592,-8.008 8.007,-8.008 z"/><path id="path6538-402-3-3-7" d="m 280.346,92.234 c 0,-13.265 -10.792,-24.056 -24.056,-24.056 H 112.013 c -13.264,0 -24.055,10.792 -24.055,24.056 0,13.263 10.791,24.053 24.055,24.053 h 144.278 c 13.264,0 24.055,-10.79 24.055,-24.053 z m -176.388,0 c 0,-4.442 3.613,-8.056 8.055,-8.056 h 144.278 c 4.442,0 8.056,3.614 8.056,8.056 0,4.44 -3.614,8.053 -8.056,8.053 H 112.013 c -4.442,0 -8.055,-3.613 -8.055,-8.053 z"/></g><g id="g6528-7-3-35-1-8" transform="matrix(0.1451581,0,0,0.12320773,632.45254,525.85004)"><path id="path6530-6-8-8-4-7" d="m 390.083,148.075 c 18.716,0 33.942,-15.227 33.942,-33.942 l 0,-44.053 c 0,-18.716 -15.227,-33.942 -33.942,-33.942 l -356.14,0 C 15.227,36.138 0,51.365 0,70.08 l 0,44.053 c 0,18.716 15.227,33.942 33.943,33.942 118.33508,0.47034 250.19899,0.0934 356.14,0.002 z M 16,114.133 16,70.08 c 0,-9.894 8.049,-17.942 17.943,-17.942 l 356.141,0 c 9.894,0 17.942,8.049 17.942,17.942 l 0,44.053 c 0,9.894 -8.049,17.942 -17.942,17.942 l -356.141,0 C 24.049,132.075 16,124.027 16,114.133 z"/><path id="path6532-0-5-0-9-9" d="m 56.028,68.053 c -13.237,0 -24.007,10.77 -24.007,24.008 0,13.237 10.77,24.007 24.007,24.007 13.238,0 24.007,-10.77 24.007,-24.007 C 80.036,78.823 69.266,68.053 56.028,68.053 z m 0,32.015 c -4.415,0 -8.007,-3.592 -8.007,-8.007 0,-4.415 3.592,-8.008 8.007,-8.008 4.415,0 8.007,3.592 8.007,8.008 0.001,4.415 -3.592,8.007 -8.007,8.007 z"/><path id="path6534-8-6-4-9-0" d="m 367.885,116.068 c 13.238,0 24.008,-10.77 24.008,-24.007 0,-13.238 -10.77,-24.008 -24.008,-24.008 -13.237,0 -24.006,10.77 -24.006,24.008 -0.001,13.237 10.768,24.007 24.006,24.007 z m 0,-32.015 c 4.416,0 8.008,3.592 8.008,8.008 0,4.415 -3.592,8.007 -8.008,8.007 -4.415,0 -8.006,-3.592 -8.006,-8.007 -0.001,-4.415 3.591,-8.008 8.006,-8.008 z"/><path id="path6536-80-9-5-6-9" d="m 312.027,116.068 c 13.238,0 24.007,-10.77 24.007,-24.007 0,-13.238 -10.77,-24.008 -24.007,-24.008 -13.237,0 -24.007,10.77 -24.007,24.008 0.001,13.237 10.77,24.007 24.007,24.007 z m 0,-32.015 c 4.415,0 8.007,3.592 8.007,8.008 0,4.415 -3.592,8.007 -8.007,8.007 -4.415,0 -8.007,-3.592 -8.007,-8.007 0.001,-4.415 3.592,-8.008 8.007,-8.008 z"/><path id="path6538-402-3-2-3-2" d="m 280.346,92.234 c 0,-13.265 -10.792,-24.056 -24.056,-24.056 H 112.013 c -13.264,0 -24.055,10.792 -24.055,24.056 0,13.263 10.791,24.053 24.055,24.053 h 144.278 c 13.264,0 24.055,-10.79 24.055,-24.053 z m -176.388,0 c 0,-4.442 3.613,-8.056 8.055,-8.056 h 144.278 c 4.442,0 8.056,3.614 8.056,8.056 0,4.44 -3.614,8.053 -8.056,8.053 H 112.013 c -4.442,0 -8.055,-3.613 -8.055,-8.053 z"/></g><g id="g6528-7-3-2-6" transform="matrix(0.1451581,0,0,0.12320773,709.99383,499.24866)"><path id="path6530-6-8-7-5" d="m 390.083,148.075 c 18.716,0 33.942,-15.227 33.942,-33.942 l 0,-44.053 c 0,-18.716 -15.227,-33.942 -33.942,-33.942 l -356.14,0 C 15.227,36.138 0,51.365 0,70.08 l 0,44.053 c 0,18.716 15.227,33.942 33.943,33.942 118.33508,0.47034 250.19899,0.0934 356.14,0.002 z M 16,114.133 16,70.08 c 0,-9.894 8.049,-17.942 17.943,-17.942 l 356.141,0 c 9.894,0 17.942,8.049 17.942,17.942 l 0,44.053 c 0,9.894 -8.049,17.942 -17.942,17.942 l -356.141,0 C 24.049,132.075 16,124.027 16,114.133 z"/><path id="path6532-0-5-1-3" d="m 56.028,68.053 c -13.237,0 -24.007,10.77 -24.007,24.008 0,13.237 10.77,24.007 24.007,24.007 13.238,0 24.007,-10.77 24.007,-24.007 C 80.036,78.823 69.266,68.053 56.028,68.053 z m 0,32.015 c -4.415,0 -8.007,-3.592 -8.007,-8.007 0,-4.415 3.592,-8.008 8.007,-8.008 4.415,0 8.007,3.592 8.007,8.008 0.001,4.415 -3.592,8.007 -8.007,8.007 z"/><path id="path6534-8-6-98-4" d="m 367.885,116.068 c 13.238,0 24.008,-10.77 24.008,-24.007 0,-13.238 -10.77,-24.008 -24.008,-24.008 -13.237,0 -24.006,10.77 -24.006,24.008 -0.001,13.237 10.768,24.007 24.006,24.007 z m 0,-32.015 c 4.416,0 8.008,3.592 8.008,8.008 0,4.415 -3.592,8.007 -8.008,8.007 -4.415,0 -8.006,-3.592 -8.006,-8.007 -0.001,-4.415 3.591,-8.008 8.006,-8.008 z"/><path id="path6536-80-9-65-4" d="m 312.027,116.068 c 13.238,0 24.007,-10.77 24.007,-24.007 0,-13.238 -10.77,-24.008 -24.007,-24.008 -13.237,0 -24.007,10.77 -24.007,24.008 0.001,13.237 10.77,24.007 24.007,24.007 z m 0,-32.015 c 4.415,0 8.007,3.592 8.007,8.008 0,4.415 -3.592,8.007 -8.007,8.007 -4.415,0 -8.007,-3.592 -8.007,-8.007 0.001,-4.415 3.592,-8.008 8.007,-8.008 z"/><path id="path6538-402-3-5-7" d="m 280.346,92.234 c 0,-13.265 -10.792,-24.056 -24.056,-24.056 H 112.013 c -13.264,0 -24.055,10.792 -24.055,24.056 0,13.263 10.791,24.053 24.055,24.053 h 144.278 c 13.264,0 24.055,-10.79 24.055,-24.053 z m -176.388,0 c 0,-4.442 3.613,-8.056 8.055,-8.056 h 144.278 c 4.442,0 8.056,3.614 8.056,8.056 0,4.44 -3.614,8.053 -8.056,8.053 H 112.013 c -4.442,0 -8.055,-3.613 -8.055,-8.053 z"/></g><g id="g6528-7-3-35-5-2" transform="matrix(0.1451581,0,0,0.12320773,710.45254,525.85004)"><path id="path6530-6-8-8-5-3" d="m 390.083,148.075 c 18.716,0 33.942,-15.227 33.942,-33.942 l 0,-44.053 c 0,-18.716 -15.227,-33.942 -33.942,-33.942 l -356.14,0 C 15.227,36.138 0,51.365 0,70.08 l 0,44.053 c 0,18.716 15.227,33.942 33.943,33.942 118.33508,0.47034 250.19899,0.0934 356.14,0.002 z M 16,114.133 16,70.08 c 0,-9.894 8.049,-17.942 17.943,-17.942 l 356.141,0 c 9.894,0 17.942,8.049 17.942,17.942 l 0,44.053 c 0,9.894 -8.049,17.942 -17.942,17.942 l -356.141,0 C 24.049,132.075 16,124.027 16,114.133 z"/><path id="path6532-0-5-0-0-1" d="m 56.028,68.053 c -13.237,0 -24.007,10.77 -24.007,24.008 0,13.237 10.77,24.007 24.007,24.007 13.238,0 24.007,-10.77 24.007,-24.007 C 80.036,78.823 69.266,68.053 56.028,68.053 z m 0,32.015 c -4.415,0 -8.007,-3.592 -8.007,-8.007 0,-4.415 3.592,-8.008 8.007,-8.008 4.415,0 8.007,3.592 8.007,8.008 0.001,4.415 -3.592,8.007 -8.007,8.007 z"/><path id="path6534-8-6-4-1-0" d="m 367.885,116.068 c 13.238,0 24.008,-10.77 24.008,-24.007 0,-13.238 -10.77,-24.008 -24.008,-24.008 -13.237,0 -24.006,10.77 -24.006,24.008 -0.001,13.237 10.768,24.007 24.006,24.007 z m 0,-32.015 c 4.416,0 8.008,3.592 8.008,8.008 0,4.415 -3.592,8.007 -8.008,8.007 -4.415,0 -8.006,-3.592 -8.006,-8.007 -0.001,-4.415 3.591,-8.008 8.006,-8.008 z"/><path id="path6536-80-9-5-8-8" d="m 312.027,116.068 c 13.238,0 24.007,-10.77 24.007,-24.007 0,-13.238 -10.77,-24.008 -24.007,-24.008 -13.237,0 -24.007,10.77 -24.007,24.008 0.001,13.237 10.77,24.007 24.007,24.007 z m 0,-32.015 c 4.415,0 8.007,3.592 8.007,8.008 0,4.415 -3.592,8.007 -8.007,8.007 -4.415,0 -8.007,-3.592 -8.007,-8.007 0.001,-4.415 3.592,-8.008 8.007,-8.008 z"/><path id="path6538-402-3-2-61-8" d="m 280.346,92.234 c 0,-13.265 -10.792,-24.056 -24.056,-24.056 H 112.013 c -13.264,0 -24.055,10.792 -24.055,24.056 0,13.263 10.791,24.053 24.055,24.053 h 144.278 c 13.264,0 24.055,-10.79 24.055,-24.053 z m -176.388,0 c 0,-4.442 3.613,-8.056 8.055,-8.056 h 144.278 c 4.442,0 8.056,3.614 8.056,8.056 0,4.44 -3.614,8.053 -8.056,8.053 H 112.013 c -4.442,0 -8.055,-3.613 -8.055,-8.053 z"/></g><g id="g6528-7-3-36-4" transform="matrix(0.1451581,0,0,0.12320773,785.99383,499.24866)"><path id="path6530-6-8-9-2" d="m 390.083,148.075 c 18.716,0 33.942,-15.227 33.942,-33.942 l 0,-44.053 c 0,-18.716 -15.227,-33.942 -33.942,-33.942 l -356.14,0 C 15.227,36.138 0,51.365 0,70.08 l 0,44.053 c 0,18.716 15.227,33.942 33.943,33.942 118.33508,0.47034 250.19899,0.0934 356.14,0.002 z M 16,114.133 16,70.08 c 0,-9.894 8.049,-17.942 17.943,-17.942 l 356.141,0 c 9.894,0 17.942,8.049 17.942,17.942 l 0,44.053 c 0,9.894 -8.049,17.942 -17.942,17.942 l -356.141,0 C 24.049,132.075 16,124.027 16,114.133 z"/><path id="path6532-0-5-6-9" d="m 56.028,68.053 c -13.237,0 -24.007,10.77 -24.007,24.008 0,13.237 10.77,24.007 24.007,24.007 13.238,0 24.007,-10.77 24.007,-24.007 C 80.036,78.823 69.266,68.053 56.028,68.053 z m 0,32.015 c -4.415,0 -8.007,-3.592 -8.007,-8.007 0,-4.415 3.592,-8.008 8.007,-8.008 4.415,0 8.007,3.592 8.007,8.008 0.001,4.415 -3.592,8.007 -8.007,8.007 z"/><path id="path6534-8-6-3-9" d="m 367.885,116.068 c 13.238,0 24.008,-10.77 24.008,-24.007 0,-13.238 -10.77,-24.008 -24.008,-24.008 -13.237,0 -24.006,10.77 -24.006,24.008 -0.001,13.237 10.768,24.007 24.006,24.007 z m 0,-32.015 c 4.416,0 8.008,3.592 8.008,8.008 0,4.415 -3.592,8.007 -8.008,8.007 -4.415,0 -8.006,-3.592 -8.006,-8.007 -0.001,-4.415 3.591,-8.008 8.006,-8.008 z"/><path id="path6536-80-9-05-2" d="m 312.027,116.068 c 13.238,0 24.007,-10.77 24.007,-24.007 0,-13.238 -10.77,-24.008 -24.007,-24.008 -13.237,0 -24.007,10.77 -24.007,24.008 0.001,13.237 10.77,24.007 24.007,24.007 z m 0,-32.015 c 4.415,0 8.007,3.592 8.007,8.008 0,4.415 -3.592,8.007 -8.007,8.007 -4.415,0 -8.007,-3.592 -8.007,-8.007 0.001,-4.415 3.592,-8.008 8.007,-8.008 z"/><path id="path6538-402-3-4-3" d="m 280.346,92.234 c 0,-13.265 -10.792,-24.056 -24.056,-24.056 H 112.013 c -13.264,0 -24.055,10.792 -24.055,24.056 0,13.263 10.791,24.053 24.055,24.053 h 144.278 c 13.264,0 24.055,-10.79 24.055,-24.053 z m -176.388,0 c 0,-4.442 3.613,-8.056 8.055,-8.056 h 144.278 c 4.442,0 8.056,3.614 8.056,8.056 0,4.44 -3.614,8.053 -8.056,8.053 H 112.013 c -4.442,0 -8.055,-3.613 -8.055,-8.053 z"/></g><g id="g6528-7-3-35-2-0" transform="matrix(0.1451581,0,0,0.12320773,786.45254,525.85004)"><path id="path6530-6-8-8-2-2" d="m 390.083,148.075 c 18.716,0 33.942,-15.227 33.942,-33.942 l 0,-44.053 c 0,-18.716 -15.227,-33.942 -33.942,-33.942 l -356.14,0 C 15.227,36.138 0,51.365 0,70.08 l 0,44.053 c 0,18.716 15.227,33.942 33.943,33.942 118.33508,0.47034 250.19899,0.0934 356.14,0.002 z M 16,114.133 16,70.08 c 0,-9.894 8.049,-17.942 17.943,-17.942 l 356.141,0 c 9.894,0 17.942,8.049 17.942,17.942 l 0,44.053 c 0,9.894 -8.049,17.942 -17.942,17.942 l -356.141,0 C 24.049,132.075 16,124.027 16,114.133 z"/><path id="path6532-0-5-0-09-4" d="m 56.028,68.053 c -13.237,0 -24.007,10.77 -24.007,24.008 0,13.237 10.77,24.007 24.007,24.007 13.238,0 24.007,-10.77 24.007,-24.007 C 80.036,78.823 69.266,68.053 56.028,68.053 z m 0,32.015 c -4.415,0 -8.007,-3.592 -8.007,-8.007 0,-4.415 3.592,-8.008 8.007,-8.008 4.415,0 8.007,3.592 8.007,8.008 0.001,4.415 -3.592,8.007 -8.007,8.007 z"/><path id="path6534-8-6-4-519-4" d="m 367.885,116.068 c 13.238,0 24.008,-10.77 24.008,-24.007 0,-13.238 -10.77,-24.008 -24.008,-24.008 -13.237,0 -24.006,10.77 -24.006,24.008 -0.001,13.237 10.768,24.007 24.006,24.007 z m 0,-32.015 c 4.416,0 8.008,3.592 8.008,8.008 0,4.415 -3.592,8.007 -8.008,8.007 -4.415,0 -8.006,-3.592 -8.006,-8.007 -0.001,-4.415 3.591,-8.008 8.006,-8.008 z"/><path id="path6536-80-9-5-1-2" d="m 312.027,116.068 c 13.238,0 24.007,-10.77 24.007,-24.007 0,-13.238 -10.77,-24.008 -24.007,-24.008 -13.237,0 -24.007,10.77 -24.007,24.008 0.001,13.237 10.77,24.007 24.007,24.007 z m 0,-32.015 c 4.415,0 8.007,3.592 8.007,8.008 0,4.415 -3.592,8.007 -8.007,8.007 -4.415,0 -8.007,-3.592 -8.007,-8.007 0.001,-4.415 3.592,-8.008 8.007,-8.008 z"/><path id="path6538-402-3-2-2-2" d="m 280.346,92.234 c 0,-13.265 -10.792,-24.056 -24.056,-24.056 H 112.013 c -13.264,0 -24.055,10.792 -24.055,24.056 0,13.263 10.791,24.053 24.055,24.053 h 144.278 c 13.264,0 24.055,-10.79 24.055,-24.053 z m -176.388,0 c 0,-4.442 3.613,-8.056 8.055,-8.056 h 144.278 c 4.442,0 8.056,3.614 8.056,8.056 0,4.44 -3.614,8.053 -8.056,8.053 H 112.013 c -4.442,0 -8.055,-3.613 -8.055,-8.053 z"/></g><g id="g4546" transform="translate(4,22)"><rect style="opacity:.89961392;fill:none;stroke:#000;stroke-width:2.05021477;stroke-miterlimit:4;stroke-dasharray:none;stroke-opacity:1" id="rect6034-3-8-0-4" width="90.339" height="70.526" x="397.828" y="369.077" rx="7.2"/><text style="font-style:normal;font-weight:700;font-size:12px;line-height:125%;font-family:Sans;-inkscape-font-specification:'Sans Bold';letter-spacing:0;word-spacing:0;fill:#000;fill-opacity:1;stroke:none" id="text6218-8-6-1-9-9" x="439.429" y="433.064" xml:space="preserve"><tspan id="tspan6243-9-39-0-6" x="439.429" y="433.064" style="font-style:normal;font-variant:normal;font-weight:700;font-stretch:normal;font-size:10px;font-family:'Times New Roman';-inkscape-font-specification:'Times New Roman';text-align:center;text-anchor:middle">Checkpoint Node</tspan></text><path id="path3959-2-6-4-0-1-6-0-9-1" d="m 448.80996,387.54631 -12.32057,0 0,-1.72422 12.32057,0 z m 0,1.12442 -12.32057,0 0,1.72755 12.32057,0 z m -0.004,-7.82133 -12.30173,0 0,3.79873 12.30173,0 z m 3.93585,-4.08408 0,40.71613 c -9.4e-4,0.61005 -0.5507,1.10728 -1.22582,1.10728 l -17.72181,0 c -0.67704,0 -1.22392,-0.49743 -1.22392,-1.109 l 0,-40.7144 c 0,-0.61176 0.54688,-1.11074 1.22392,-1.11074 l 17.72181,0 c 0.67702,0 1.22582,0.49903 1.22582,1.11074 z m -2.44979,1.10563 -15.27579,0 0,38.49975 15.27579,0 z m -1.47853,13.65008 -12.32055,0 0,1.72249 12.32055,0 z m -2.00465,12.8469 c 0,1.98567 -1.7708,3.58682 -3.95469,3.58682 -2.18765,0 -3.95854,-1.60289 -3.95854,-3.58682 0,-1.97882 1.77281,-3.58509 3.95854,-3.58509 2.18389,0 3.95469,1.608 3.95469,3.58509 z m -1.42762,0 c 0,-1.26282 -1.13149,-2.29154 -2.52899,-2.29154 -1.39928,0 -2.53087,1.027 -2.53087,2.29154 0,1.26452 1.13159,2.28987 2.53087,2.28987 1.3975,0 2.52899,-1.02535 2.52899,-2.28987 z" style="fill:#010002"/></g><path id="path8089-8-5-0-3-6-9" d="M 36.037969,5.2850194 2.2662294,6.1664594" style="fill:none;stroke:#000;stroke-width:2.25;stroke-linecap:butt;stroke-linejoin:miter;stroke-miterlimit:4;stroke-dasharray:none;stroke-opacity:1;marker-start:url(#EmptyTriangleInM-3);marker-mid:none;marker-end:url(#EmptyTriangleOutM-90)"/><path id="path8089-8-5-9-6" d="m 397.50632,422.95343 -21.28883,0.15309" style="fill:none;stroke:#000;stroke-width:2.24655008;stroke-linecap:butt;stroke-linejoin:miter;stroke-miterlimit:4;stroke-dasharray:none;stroke-opacity:1;marker-start:url(#EmptyTriangleInM-61);marker-mid:none;marker-end:url(#EmptyTriangleOutM-33)"/></g></svg>