<svg xmlns="http://www.w3.org/2000/svg" xmlns:svg="http://www.w3.org/2000/svg" id="svg4905" width="210mm" height="297mm" version="1.1" viewBox="0 0 744.094 1052.362"><defs id="defs4907"><marker id="Arrow1Mend" orient="auto" refX="0" refY="0" style="overflow:visible"><path id="path4085" d="M 0.0,0.0 L 5.0,-5.0 L -12.5,0.0 L 5.0,5.0 L 0.0,0.0 z" transform="scale(0.4) rotate(180) translate(10,0)" style="fill-rule:evenodd;stroke:#000;stroke-width:1pt"/></marker><marker id="Tail" orient="auto" refX="0" refY="0" style="overflow:visible"><g id="g4112" transform="scale(-1.2)"><path id="path4114" d="M -3.8048674,-3.9585227 L 0.54352094,0" style="fill:none;fill-rule:evenodd;stroke:#000;stroke-width:.8;stroke-linecap:round"/><path id="path4116" d="M -1.2866832,-3.9585227 L 3.0617053,0" style="fill:none;fill-rule:evenodd;stroke:#000;stroke-width:.8;stroke-linecap:round"/><path id="path4118" d="M 1.3053582,-3.9585227 L 5.6537466,0" style="fill:none;fill-rule:evenodd;stroke:#000;stroke-width:.8;stroke-linecap:round"/><path id="path4120" d="M -3.8048674,4.1775838 L 0.54352094,0.21974226" style="fill:none;fill-rule:evenodd;stroke:#000;stroke-width:.8;stroke-linecap:round"/><path id="path4122" d="M -1.2866832,4.1775838 L 3.0617053,0.21974226" style="fill:none;fill-rule:evenodd;stroke:#000;stroke-width:.8;stroke-linecap:round"/><path id="path4124" d="M 1.3053582,4.1775838 L 5.6537466,0.21974226" style="fill:none;fill-rule:evenodd;stroke:#000;stroke-width:.8;stroke-linecap:round"/></g></marker><marker id="Arrow2Lend" orient="auto" refX="0" refY="0" style="overflow:visible"><path id="path4097" d="M 8.7185878,4.0337352 L -2.2072895,0.016013256 L 8.7185884,-4.0017078 C 6.9730900,-1.6296469 6.9831476,1.6157441 8.7185878,4.0337352 z" transform="scale(1.1) rotate(180) translate(1,0)" style="fill-rule:evenodd;stroke-width:.625;stroke-linejoin:round"/></marker><marker id="marker9686-8-9-3" orient="auto" refX="0" refY="0" style="overflow:visible"><path id="path9688-4-0-1" d="M 0,0 5,-5 -12.5,0 5,5 0,0 Z" transform="matrix(-0.8,0,0,-0.8,-10,0)" style="fill-rule:evenodd;stroke:#000;stroke-width:1pt"/></marker><marker id="marker9686-8-9" orient="auto" refX="0" refY="0" style="overflow:visible"><path id="path9688-4-0" d="M 0,0 5,-5 -12.5,0 5,5 0,0 Z" transform="matrix(-0.8,0,0,-0.8,-10,0)" style="fill-rule:evenodd;stroke:#000;stroke-width:1pt"/></marker><marker id="marker9686-8-9-3-8" orient="auto" refX="0" refY="0" style="overflow:visible"><path id="path9688-4-0-1-7" d="M 0,0 5,-5 -12.5,0 5,5 0,0 Z" transform="matrix(-0.8,0,0,-0.8,-10,0)" style="fill-rule:evenodd;stroke:#000;stroke-width:1pt"/></marker><marker id="marker9686-8-9-9" orient="auto" refX="0" refY="0" style="overflow:visible"><path id="path9688-4-0-3" d="M 0,0 5,-5 -12.5,0 5,5 0,0 Z" transform="matrix(-0.8,0,0,-0.8,-10,0)" style="fill-rule:evenodd;stroke:#000;stroke-width:1pt"/></marker><marker id="marker9686-8-9-9-0" orient="auto" refX="0" refY="0" style="overflow:visible"><path id="path9688-4-0-3-3" d="M 0,0 5,-5 -12.5,0 5,5 0,0 z" transform="matrix(-0.8,0,0,-0.8,-10,0)" style="fill-rule:evenodd;stroke:#000;stroke-width:1pt"/></marker><marker id="marker9686-8-9-9-0-3" orient="auto" refX="0" refY="0" style="overflow:visible"><path id="path9688-4-0-3-3-3" d="M 0,0 5,-5 -12.5,0 5,5 0,0 z" transform="matrix(-0.8,0,0,-0.8,-10,0)" style="fill-rule:evenodd;stroke:#000;stroke-width:1pt"/></marker></defs><metadata id="metadata4910"/><g id="layer1"><text style="font-size:8.89187527px;font-style:normal;font-variant:normal;font-weight:700;font-stretch:normal;text-align:start;line-height:125%;letter-spacing:0;word-spacing:0;writing-mode:lr-tb;text-anchor:start;fill:#2b0000;fill-opacity:1;stroke:none;font-family:Sans;-inkscape-font-specification:'Sans, Bold'" id="text3792-1-64-8-1" x="56.498" y="6.516" xml:space="preserve"><tspan id="tspan3794-2-8-1-9" x="56.498" y="6.516" style="font-size:8.89187527px;font-style:normal;font-variant:normal;font-weight:700;font-stretch:normal;text-align:start;line-height:125%;writing-mode:lr-tb;text-anchor:start;fill:#2b0000;font-family:Sans;-inkscape-font-specification:'Sans, Bold'">/</tspan></text><path style="fill:#2b0000;fill-opacity:1;stroke:#000;stroke-width:0;stroke-miterlimit:4;stroke-opacity:1;stroke-dasharray:none;stroke-dashoffset:0" id="path3790-9-0-2-1-7-0-7" d="m 34.41144,120.62923 a 4.1224995,4.228889 0 1 1 -6.9e-5,-0.0244" transform="translate(0,-42.928571)"/><path style="fill:#2b0000;stroke:#000;stroke-width:.44459483;stroke-linecap:butt;stroke-linejoin:miter;stroke-miterlimit:4;stroke-opacity:1;stroke-dasharray:none" id="path4312-6-6-8-2" d="M 47.452929,43.190736 32.272349,74.051539"/><path style="fill:#2b0000;stroke:#000;stroke-width:1.48198271;stroke-linecap:butt;stroke-linejoin:miter;stroke-miterlimit:4;stroke-opacity:1;stroke-dasharray:1.4819827,1.4819827;stroke-dashoffset:0" id="path4278-3-9-0-1-7" d="m 39.111909,77.788009 c 10.57278,-0.0935 17.20987,0.0388 17.20987,0.0388"/><path style="fill:#2b0000;fill-opacity:1;stroke:#000;stroke-width:0;stroke-miterlimit:4;stroke-opacity:1;stroke-dasharray:none;stroke-dashoffset:0" id="path3790-9-7-4-6-1-3-3-8-1" d="m 122.24152,120.80553 a 4.1224995,4.228889 0 1 1 -7e-5,-0.0244" transform="translate(0,-42.928571)"/><path style="fill:#2b0000;fill-opacity:1;stroke:#000;stroke-width:0;stroke-miterlimit:4;stroke-opacity:1;stroke-dasharray:none;stroke-dashoffset:0" id="path3790-9-0-2-1-7-0-7-8" d="m 86.850405,121.35225 a 4.1224995,4.228889 0 1 1 -6.9e-5,-0.0244" transform="translate(0,-42.928571)"/><path style="fill:#2b0000;stroke:#000;stroke-width:.44459483;stroke-linecap:butt;stroke-linejoin:miter;stroke-miterlimit:4;stroke-opacity:1;stroke-dasharray:none" id="path4312-6-6-8-2-0" d="M 95.141879,44.538736 83.461299,77.524539"/><path style="fill:#2b0000;fill-opacity:1;stroke:#000;stroke-width:0;stroke-miterlimit:4;stroke-opacity:1;stroke-dasharray:none;stroke-dashoffset:0" id="path3790-9-0-2-1-7-0" d="m 51.415895,86.75856 a 4.1224995,4.228889 0 1 1 -6.8e-5,-0.0244" transform="translate(0,-42.928571)"/><path style="fill:#2b0000;fill-opacity:1;stroke:#000;stroke-width:0;stroke-miterlimit:4;stroke-opacity:1;stroke-dasharray:none;stroke-dashoffset:0" id="path3790-9-7-4-6-1-3-3" d="m 99.206453,86.75856 a 4.1224995,4.228889 0 1 1 -6.8e-5,-0.0244" transform="translate(0,-42.928571)"/><path style="fill:#2b0000;stroke:#000;stroke-width:.44459483;stroke-linecap:butt;stroke-linejoin:miter;stroke-miterlimit:4;stroke-opacity:1;stroke-dasharray:none" id="path4314-1-0-9-8-8" d="m 63.814719,78.421669 15.18058,30.860781"/><path style="fill:#2b0000;stroke:#000;stroke-width:.44459483;stroke-linecap:butt;stroke-linejoin:miter;stroke-miterlimit:4;stroke-opacity:1;stroke-dasharray:none" id="path4312-6-6-8-2-6" d="M 64.423319,78.042859 49.242739,108.90365"/><path style="fill:#2b0000;stroke:#000;stroke-width:.44459483;stroke-linecap:butt;stroke-linejoin:miter;stroke-miterlimit:4;stroke-opacity:1;stroke-dasharray:none" id="path4312-6-6-8-2-6-3" d="M 118.30722,78.512519 103.12664,109.37331"/><path style="fill:#2b0000;fill-opacity:1;stroke:#000;stroke-width:0;stroke-miterlimit:4;stroke-opacity:1;stroke-dasharray:none;stroke-dashoffset:0" id="path3790-9-7-4-6-1-3-3-8" d="m 68.004549,121.13432 a 4.1224995,4.228889 0 1 1 -6.9e-5,-0.0244" transform="translate(0,-42.928571)"/><path style="fill:#2b0000;fill-opacity:1;stroke:#000;stroke-width:0;stroke-miterlimit:4;stroke-opacity:1;stroke-dasharray:none;stroke-dashoffset:0" id="path3790-9-0-2-1-7-0-7-8-1" d="m 53.405085,153.77019 a 4.1224995,4.228889 0 1 1 -6.9e-5,-0.0244" transform="translate(0,-42.928571)"/><path style="fill:#2b0000;fill-opacity:1;stroke:#000;stroke-width:0;stroke-miterlimit:4;stroke-opacity:1;stroke-dasharray:none;stroke-dashoffset:0" id="path3790-9-0-2-1-7-0-7-8-7" d="m 82.750032,153.77019 a 4.1224995,4.228889 0 1 1 -6.8e-5,-0.0244" transform="translate(0,-42.928571)"/><path style="fill:#2b0000;fill-opacity:1;stroke:#000;stroke-width:0;stroke-miterlimit:4;stroke-opacity:1;stroke-dasharray:none;stroke-dashoffset:0" id="path3790-9-0-2-1-7-0-7-8-1-6" d="m 107.10227,153.77019 a 4.1224995,4.228889 0 1 1 -7e-5,-0.0244" transform="translate(0,-42.928571)"/><text style="font-size:40px;font-style:normal;font-weight:400;line-height:125%;letter-spacing:0;word-spacing:0;fill:red;fill-opacity:1;stroke:none;font-family:Sans" id="text8200-9-5-3" x="100.878" y="41.101" xml:space="preserve"><tspan id="tspan8202-85-5-5" x="100.878" y="41.101" style="font-size:6px;font-style:normal;font-variant:normal;font-weight:700;font-stretch:normal;text-align:start;line-height:125%;writing-mode:lr-tb;text-anchor:start;fill:red;font-family:Sans;-inkscape-font-specification:'Sans, Bold'">Max NS Quota 10</tspan><tspan style="font-size:6px;font-style:normal;font-variant:normal;font-weight:700;font-stretch:normal;text-align:start;line-height:125%;writing-mode:lr-tb;text-anchor:start;fill:red;font-family:Sans;-inkscape-font-specification:'Sans, Bold'" id="tspan3169" x="100.878" y="48.601">Current NS Count 4</tspan></text><path style="fill:#2b0000;fill-opacity:1;stroke:#000;stroke-width:0;stroke-miterlimit:4;stroke-opacity:1;stroke-dasharray:none;stroke-dashoffset:0" id="path3790-9-7-48-8-9" d="m 70.311159,48.346081 a 4.1224995,4.228889 0 1 1 -6.8e-5,-0.0244" transform="translate(0,-42.928571)"/><path style="fill:#2b0000;stroke:#000;stroke-width:.44499999;stroke-linecap:butt;stroke-linejoin:miter;stroke-miterlimit:4;stroke-opacity:1;stroke-dasharray:none" id="path6786" d="M 68.707272,8.7656723 92.565342,40.481827"/><path style="fill:#2b0000;stroke:#000;stroke-width:.44499999;stroke-linecap:butt;stroke-linejoin:miter;stroke-miterlimit:4;stroke-opacity:1;stroke-dasharray:none" id="path7152" d="M 49.150952,40.053735 64.331092,9.1937874"/><path style="fill:#2b0000;stroke:#000;stroke-width:.44499999;stroke-linecap:butt;stroke-linejoin:miter;stroke-miterlimit:4;stroke-opacity:1;stroke-dasharray:none" id="path7556" d="m 97.43832,47.30185 19.88774,29.327409"/><text style="font-size:8px;font-style:normal;font-variant:normal;font-weight:700;font-stretch:normal;line-height:125%;letter-spacing:0;word-spacing:0;fill:navy;fill-opacity:1;stroke:none;font-family:Courier;-inkscape-font-specification:Courier Bold" id="text3171" x="65.155" y="45.748" xml:space="preserve"><tspan id="tspan3173" x="65.155" y="45.748">/QDir</tspan></text><text style="font-size:8.89187527px;font-style:normal;font-variant:normal;font-weight:700;font-stretch:normal;text-align:start;line-height:125%;letter-spacing:0;word-spacing:0;writing-mode:lr-tb;text-anchor:start;fill:#2b0000;fill-opacity:1;stroke:none;font-family:Sans;-inkscape-font-specification:'Sans, Bold'" id="text3792-1-64-8-1-1" x="210.695" y="6.462" xml:space="preserve"><tspan id="tspan3794-2-8-1-9-9" x="210.695" y="6.462" style="font-size:8.89187527px;font-style:normal;font-variant:normal;font-weight:700;font-stretch:normal;text-align:start;line-height:125%;writing-mode:lr-tb;text-anchor:start;fill:#2b0000;font-family:Sans;-inkscape-font-specification:'Sans, Bold'">/</tspan></text><path style="fill:#2b0000;fill-opacity:1;stroke:#000;stroke-width:0;stroke-miterlimit:4;stroke-opacity:1;stroke-dasharray:none;stroke-dashoffset:0" id="path3790-9-0-2-1-7-0-7-1" d="m 34.41144,120.62923 a 4.1224995,4.228889 0 1 1 -6.9e-5,-0.0244" transform="translate(154.19703,-42.982471)"/><path style="fill:#2b0000;stroke:#000;stroke-width:.44459483;stroke-linecap:butt;stroke-linejoin:miter;stroke-miterlimit:4;stroke-opacity:1;stroke-dasharray:none" id="path4312-6-6-8-2-9" d="M 201.64996,43.136838 186.46938,73.997643"/><path style="fill:#2b0000;stroke:#000;stroke-width:1.48198271;stroke-linecap:butt;stroke-linejoin:miter;stroke-miterlimit:4;stroke-opacity:1;stroke-dasharray:1.48198273,1.48198273;stroke-dashoffset:0" id="path4278-3-9-0-1-7-7" d="m 193.30894,77.734113 c 10.57278,-0.0935 17.20987,0.0388 17.20987,0.0388"/><path style="fill:#2b0000;stroke:#000;stroke-width:.44459483;stroke-linecap:butt;stroke-linejoin:miter;stroke-miterlimit:4;stroke-opacity:1;stroke-dasharray:none" id="path4312-6-6-8-2-0-5" d="M 249.33891,44.484838 237.65833,77.470643"/><path style="fill:#2b0000;fill-opacity:1;stroke:#000;stroke-width:0;stroke-miterlimit:4;stroke-opacity:1;stroke-dasharray:none;stroke-dashoffset:0" id="path3790-9-0-2-1-7-0-6" d="m 51.415895,86.75856 a 4.1224995,4.228889 0 1 1 -6.8e-5,-0.0244" transform="translate(154.19703,-42.982471)"/><path style="fill:#2b0000;fill-opacity:1;stroke:#000;stroke-width:0;stroke-miterlimit:4;stroke-opacity:1;stroke-dasharray:none;stroke-dashoffset:0" id="path3790-9-7-4-6-1-3-3-2" d="m 99.206453,86.75856 a 4.1224995,4.228889 0 1 1 -6.8e-5,-0.0244" transform="translate(154.19703,-42.982471)"/><path style="fill:#2b0000;stroke:#000;stroke-width:.44459483;stroke-linecap:butt;stroke-linejoin:miter;stroke-miterlimit:4;stroke-opacity:1;stroke-dasharray:none" id="path4314-1-0-9-8-8-0" d="m 218.01175,78.367773 15.18058,30.860787"/><path style="fill:#2b0000;fill-opacity:1;stroke:#000;stroke-width:0;stroke-miterlimit:4;stroke-opacity:1;stroke-dasharray:none;stroke-dashoffset:0" id="path3790-9-0-2-1-7-0-7-8-3" d="m 86.850405,121.35225 a 4.1224995,4.228889 0 1 1 -6.9e-5,-0.0244" transform="translate(154.19703,-42.982471)"/><path style="fill:#2b0000;stroke:#000;stroke-width:.44459483;stroke-linecap:butt;stroke-linejoin:miter;stroke-miterlimit:4;stroke-opacity:1;stroke-dasharray:none" id="path4312-6-6-8-2-6-5" d="M 218.62035,77.988963 203.43977,108.84976"/><path style="fill:red;stroke:#ff0005;stroke-width:.44459483;stroke-linecap:butt;stroke-linejoin:miter;stroke-miterlimit:4;stroke-opacity:1;stroke-dasharray:none" id="path4314-1-0-9-8-8-5-7" d="m 271.89565,78.837433 15.18059,30.860787"/><path style="fill:#2b0000;stroke:#000;stroke-width:.44459483;stroke-linecap:butt;stroke-linejoin:miter;stroke-miterlimit:4;stroke-opacity:1;stroke-dasharray:none" id="path4312-6-6-8-2-6-3-6" d="M 272.50425,78.458623 257.32367,109.31942"/><path style="fill:#2b0000;fill-opacity:1;stroke:#000;stroke-width:0;stroke-miterlimit:4;stroke-opacity:1;stroke-dasharray:none;stroke-dashoffset:0" id="path3790-9-7-4-6-1-3-3-8-7" d="m 68.004549,121.13432 a 4.1224995,4.228889 0 1 1 -6.9e-5,-0.0244" transform="translate(154.19703,-42.982471)"/><path style="fill:#2b0000;fill-opacity:1;stroke:#000;stroke-width:0;stroke-miterlimit:4;stroke-opacity:1;stroke-dasharray:none;stroke-dashoffset:0" id="path3790-9-0-2-1-7-0-7-8-1-4" d="m 53.405085,153.77019 a 4.1224995,4.228889 0 1 1 -6.9e-5,-0.0244" transform="translate(154.19703,-42.982471)"/><path style="fill:#2b0000;fill-opacity:1;stroke:#000;stroke-width:0;stroke-miterlimit:4;stroke-opacity:1;stroke-dasharray:none;stroke-dashoffset:0" id="path3790-9-0-2-1-7-0-7-8-7-4" d="m 82.750032,153.77019 a 4.1224995,4.228889 0 1 1 -6.8e-5,-0.0244" transform="translate(154.19703,-42.982471)"/><path style="fill:#2b0000;fill-opacity:1;stroke:#000;stroke-width:0;stroke-miterlimit:4;stroke-opacity:1;stroke-dasharray:none;stroke-dashoffset:0" id="path3790-9-0-2-1-7-0-7-8-1-6-0" d="m 107.10227,153.77019 a 4.1224995,4.228889 0 1 1 -7e-5,-0.0244" transform="translate(154.19703,-42.982471)"/><path style="fill:red;fill-opacity:1;stroke:#000;stroke-width:0;stroke-miterlimit:4;stroke-opacity:1;stroke-dasharray:none;stroke-dashoffset:0" id="path3790-9-0-2-1-7-0-7-8-7-0-4" d="m 136.44721,153.77019 a 4.1224995,4.228889 0 1 1 -7e-5,-0.0244" transform="translate(154.19703,-42.982471)"/><text style="font-size:40px;font-style:normal;font-weight:400;line-height:125%;letter-spacing:0;word-spacing:0;fill:#2b0000;fill-opacity:1;stroke:none;font-family:Sans" id="text8200-9-5-3-1" x="255.075" y="41.047" xml:space="preserve"><tspan id="tspan8202-85-5-5-1" x="255.075" y="41.047" style="font-size:6px;font-style:normal;font-variant:normal;font-weight:700;font-stretch:normal;text-align:start;line-height:125%;writing-mode:lr-tb;text-anchor:start;fill:#2b0000;font-family:Sans;-inkscape-font-specification:'Sans, Bold'">Max NS Quota 10</tspan><tspan style="font-size:6px;font-style:normal;font-variant:normal;font-weight:700;font-stretch:normal;text-align:start;line-height:125%;writing-mode:lr-tb;text-anchor:start;fill:#2b0000;font-family:Sans;-inkscape-font-specification:'Sans, Bold'" id="tspan3169-8" x="255.075" y="48.547">Current NS Count 4</tspan></text><path style="fill:#2b0000;fill-opacity:1;stroke:#000;stroke-width:0;stroke-miterlimit:4;stroke-opacity:1;stroke-dasharray:none;stroke-dashoffset:0" id="path3790-9-7-48-8-9-7" d="m 70.311159,48.346081 a 4.1224995,4.228889 0 1 1 -6.8e-5,-0.0244" transform="translate(154.19703,-42.982471)"/><path style="fill:#2b0000;stroke:#000;stroke-width:.44499999;stroke-linecap:butt;stroke-linejoin:miter;stroke-miterlimit:4;stroke-opacity:1;stroke-dasharray:none" id="path6786-5" d="M 222.9043,8.7117723 246.76237,40.427927"/><path style="fill:#2b0000;stroke:#000;stroke-width:.44499999;stroke-linecap:butt;stroke-linejoin:miter;stroke-miterlimit:4;stroke-opacity:1;stroke-dasharray:none" id="path7152-4" d="M 203.34798,39.999835 218.52812,9.1398874"/><path style="fill:#2b0000;stroke:#000;stroke-width:.44499999;stroke-linecap:butt;stroke-linejoin:miter;stroke-miterlimit:4;stroke-opacity:1;stroke-dasharray:none" id="path7556-6" d="m 251.63535,47.24795 19.88774,29.327413"/><path style="fill:#2b0000;fill-opacity:1;stroke:#000;stroke-width:0;stroke-miterlimit:4;stroke-opacity:1;stroke-dasharray:none;stroke-dashoffset:0" id="path3790-9-7-4-6-1-3-3-8-1-3" d="m 122.24152,120.80553 a 4.1224995,4.228889 0 1 1 -7e-5,-0.0244" transform="translate(154.19703,-42.982471)"/><text style="font-size:8px;font-style:normal;font-variant:normal;font-weight:700;font-stretch:normal;line-height:125%;letter-spacing:0;word-spacing:0;fill:navy;fill-opacity:1;stroke:none;font-family:Courier;-inkscape-font-specification:Courier Bold" id="text3171-1" x="219.352" y="45.694" xml:space="preserve"><tspan id="tspan3173-0" x="219.352" y="45.694">/QDir</tspan></text><path style="fill:#fff;fill-opacity:0;stroke:red;stroke-width:.40000001000000002;stroke-linecap:round;stroke-linejoin:miter;stroke-miterlimit:4;stroke-opacity:1;stroke-dasharray:.40000002000000001,.80000002999999986;stroke-dashoffset:0;marker-end:url(#marker9686-8-9-9)" id="path4070" d="m 290.42329,109.22354 c 0,0 15.39406,-61.694637 -11.499,-36.351367 -0.87745,0.82689 -1.79991,1.74643 -2.7694,2.76379"/><text style="font-size:8px;font-style:normal;font-variant:normal;font-weight:700;font-stretch:normal;line-height:125%;letter-spacing:0;word-spacing:0;fill:#000;fill-opacity:1;stroke:none;font-family:Sans;-inkscape-font-specification:Sans Bold" id="text5698" x="296.232" y="76.394" xml:space="preserve"><tspan id="tspan5700" x="296.232" y="76.394" style="font-size:4px;fill:red">Propagate </tspan><tspan id="tspan5702" x="296.232" y="81.394" style="font-size:4px;fill:red">Quota Change</tspan></text><text style="font-size:8.89187527px;font-style:normal;font-variant:normal;font-weight:700;font-stretch:normal;text-align:start;line-height:125%;letter-spacing:0;word-spacing:0;writing-mode:lr-tb;text-anchor:start;fill:#2b0000;fill-opacity:1;stroke:none;font-family:Sans;-inkscape-font-specification:'Sans, Bold'" id="text3792-1-64-8-1-1-5" x="375.451" y="6.54" xml:space="preserve"><tspan id="tspan3794-2-8-1-9-9-1" x="375.451" y="6.54" style="font-size:8.89187527px;font-style:normal;font-variant:normal;font-weight:700;font-stretch:normal;text-align:start;line-height:125%;writing-mode:lr-tb;text-anchor:start;fill:#2b0000;font-family:Sans;-inkscape-font-specification:'Sans, Bold'">/</tspan></text><path style="fill:#2b0000;fill-opacity:1;stroke:#000;stroke-width:0;stroke-miterlimit:4;stroke-opacity:1;stroke-dasharray:none;stroke-dashoffset:0" id="path3790-9-0-2-1-7-0-7-1-2" d="m 34.41144,120.62923 a 4.1224995,4.228889 0 1 1 -6.9e-5,-0.0244" transform="translate(318.9529,-42.904266)"/><path style="fill:#2b0000;stroke:#000;stroke-width:.44459483;stroke-linecap:butt;stroke-linejoin:miter;stroke-miterlimit:4;stroke-opacity:1;stroke-dasharray:none" id="path4312-6-6-8-2-9-6" d="m 366.40583,43.21505 -15.18058,30.8608"/><path style="fill:#2b0000;stroke:#000;stroke-width:1.48198271;stroke-linecap:butt;stroke-linejoin:miter;stroke-miterlimit:4;stroke-opacity:1;stroke-dasharray:1.48198276,1.48198276;stroke-dashoffset:0" id="path4278-3-9-0-1-7-7-0" d="m 358.06481,77.81232 c 10.57278,-0.0935 17.20987,0.0388 17.20987,0.0388"/><path style="fill:#2b0000;stroke:#000;stroke-width:.44459483;stroke-linecap:butt;stroke-linejoin:miter;stroke-miterlimit:4;stroke-opacity:1;stroke-dasharray:none" id="path4312-6-6-8-2-0-5-9" d="M 414.09478,44.56305 402.4142,77.54885"/><path style="fill:#2b0000;fill-opacity:1;stroke:#000;stroke-width:0;stroke-miterlimit:4;stroke-opacity:1;stroke-dasharray:none;stroke-dashoffset:0" id="path3790-9-0-2-1-7-0-6-1" d="m 51.415895,86.75856 a 4.1224995,4.228889 0 1 1 -6.8e-5,-0.0244" transform="translate(318.9529,-42.904266)"/><path style="fill:#2b0000;fill-opacity:1;stroke:#000;stroke-width:0;stroke-miterlimit:4;stroke-opacity:1;stroke-dasharray:none;stroke-dashoffset:0" id="path3790-9-7-4-6-1-3-3-2-5" d="m 99.206453,86.75856 a 4.1224995,4.228889 0 1 1 -6.8e-5,-0.0244" transform="translate(318.9529,-42.904266)"/><path style="fill:#2b0000;stroke:#000;stroke-width:.44459483;stroke-linecap:butt;stroke-linejoin:miter;stroke-miterlimit:4;stroke-opacity:1;stroke-dasharray:none" id="path4314-1-0-9-8-8-0-5" d="m 382.76762,78.44598 15.18058,30.86078"/><path style="fill:#2b0000;fill-opacity:1;stroke:#000;stroke-width:0;stroke-miterlimit:4;stroke-opacity:1;stroke-dasharray:none;stroke-dashoffset:0" id="path3790-9-0-2-1-7-0-7-8-3-8" d="m 86.850405,121.35225 a 4.1224995,4.228889 0 1 1 -6.9e-5,-0.0244" transform="translate(318.9529,-42.904266)"/><path style="fill:#2b0000;stroke:#000;stroke-width:.44459483;stroke-linecap:butt;stroke-linejoin:miter;stroke-miterlimit:4;stroke-opacity:1;stroke-dasharray:none" id="path4312-6-6-8-2-6-5-7" d="m 383.37622,78.06717 -15.18058,30.86079"/><path style="fill:#2b0000;stroke:#010100;stroke-width:.44459483;stroke-linecap:butt;stroke-linejoin:miter;stroke-miterlimit:4;stroke-opacity:1;stroke-dasharray:none" id="path4314-1-0-9-8-8-5-7-7" d="m 436.65152,78.91564 15.18059,30.86078"/><path style="fill:#2b0000;stroke:#000;stroke-width:.44459483;stroke-linecap:butt;stroke-linejoin:miter;stroke-miterlimit:4;stroke-opacity:1;stroke-dasharray:none" id="path4312-6-6-8-2-6-3-6-5" d="m 437.26012,78.53683 -15.18058,30.86079"/><path style="fill:#2b0000;fill-opacity:1;stroke:#000;stroke-width:0;stroke-miterlimit:4;stroke-opacity:1;stroke-dasharray:none;stroke-dashoffset:0" id="path3790-9-7-4-6-1-3-3-8-7-7" d="m 68.004549,121.13432 a 4.1224995,4.228889 0 1 1 -6.9e-5,-0.0244" transform="translate(318.9529,-42.904266)"/><path style="fill:#2b0000;fill-opacity:1;stroke:#000;stroke-width:0;stroke-miterlimit:4;stroke-opacity:1;stroke-dasharray:none;stroke-dashoffset:0" id="path3790-9-0-2-1-7-0-7-8-1-4-6" d="m 53.405085,153.77019 a 4.1224995,4.228889 0 1 1 -6.9e-5,-0.0244" transform="translate(318.9529,-42.904266)"/><path style="fill:#2b0000;fill-opacity:1;stroke:#000;stroke-width:0;stroke-miterlimit:4;stroke-opacity:1;stroke-dasharray:none;stroke-dashoffset:0" id="path3790-9-0-2-1-7-0-7-8-7-4-4" d="m 82.750032,153.77019 a 4.1224995,4.228889 0 1 1 -6.8e-5,-0.0244" transform="translate(318.9529,-42.904266)"/><path style="fill:#2b0000;fill-opacity:1;stroke:#000;stroke-width:0;stroke-miterlimit:4;stroke-opacity:1;stroke-dasharray:none;stroke-dashoffset:0" id="path3790-9-0-2-1-7-0-7-8-1-6-0-3" d="m 107.10227,153.77019 a 4.1224995,4.228889 0 1 1 -7e-5,-0.0244" transform="translate(318.9529,-42.904266)"/><path style="fill:#2b0000;fill-opacity:1;stroke:#000;stroke-width:0;stroke-miterlimit:4;stroke-opacity:1;stroke-dasharray:none;stroke-dashoffset:0" id="path3790-9-0-2-1-7-0-7-8-7-0-4-0" d="m 136.44721,153.77019 a 4.1224995,4.228889 0 1 1 -7e-5,-0.0244" transform="translate(318.9529,-42.904266)"/><text style="font-size:40px;font-style:normal;font-weight:400;line-height:125%;letter-spacing:0;word-spacing:0;fill:#2b0000;fill-opacity:1;stroke:none;font-family:Sans" id="text8200-9-5-3-1-4" x="419.831" y="41.125" xml:space="preserve"><tspan id="tspan8202-85-5-5-1-7" x="419.831" y="41.125" style="font-size:6px;font-style:normal;font-variant:normal;font-weight:700;font-stretch:normal;text-align:start;line-height:125%;writing-mode:lr-tb;text-anchor:start;fill:#2b0000;font-family:Sans;-inkscape-font-specification:'Sans, Bold'">Max NS Quota 10</tspan><tspan style="font-size:6px;font-style:normal;font-variant:normal;font-weight:700;font-stretch:normal;text-align:start;line-height:125%;writing-mode:lr-tb;text-anchor:start;fill:#2b0000;font-family:Sans;-inkscape-font-specification:'Sans, Bold'" id="tspan3169-8-4" x="419.831" y="52.612">Current NS Count <tspan style="font-size:10px" id="tspan7042">5</tspan></tspan></text><path style="fill:#2b0000;fill-opacity:1;stroke:#000;stroke-width:0;stroke-miterlimit:4;stroke-opacity:1;stroke-dasharray:none;stroke-dashoffset:0" id="path3790-9-7-48-8-9-7-8" d="m 70.311159,48.346081 a 4.1224995,4.228889 0 1 1 -6.8e-5,-0.0244" transform="translate(318.9529,-42.904266)"/><path style="fill:#2b0000;stroke:#000;stroke-width:.44499999;stroke-linecap:butt;stroke-linejoin:miter;stroke-miterlimit:4;stroke-opacity:1;stroke-dasharray:none" id="path6786-5-1" d="M 387.66017,8.7899773 411.51824,40.506132"/><path style="fill:#2b0000;stroke:#000;stroke-width:.44499999;stroke-linecap:butt;stroke-linejoin:miter;stroke-miterlimit:4;stroke-opacity:1;stroke-dasharray:none" id="path7152-4-2" d="M 368.10385,40.07804 383.28399,9.2180924"/><path style="fill:#2b0000;stroke:red;stroke-width:.44499999;stroke-linecap:butt;stroke-linejoin:miter;stroke-miterlimit:4;stroke-opacity:1;stroke-dasharray:none" id="path7556-6-4" d="M 416.39122,47.326155 436.27896,76.65357"/><path style="fill:red;fill-opacity:1;stroke:#000;stroke-width:0;stroke-miterlimit:4;stroke-opacity:1;stroke-dasharray:none;stroke-dashoffset:0" id="path3790-9-7-4-6-1-3-3-8-1-3-7" d="m 122.24152,120.80553 a 4.1224995,4.228889 0 1 1 -7e-5,-0.0244" transform="translate(318.9529,-42.904266)"/><text style="font-size:8px;font-style:normal;font-variant:normal;font-weight:700;font-stretch:normal;line-height:125%;letter-spacing:0;word-spacing:0;fill:navy;fill-opacity:1;stroke:none;font-family:Courier;-inkscape-font-specification:Courier Bold" id="text3171-1-5" x="384.108" y="45.772" xml:space="preserve"><tspan id="tspan3173-0-6" x="384.108" y="45.772">/QDir</tspan></text><text style="font-size:8px;font-style:normal;font-variant:normal;font-weight:700;font-stretch:normal;line-height:125%;letter-spacing:0;word-spacing:0;fill:#000;fill-opacity:1;stroke:none;font-family:Sans;-inkscape-font-specification:Sans Bold" id="text5698-9" x="415.273" y="64.329" xml:space="preserve"><tspan id="tspan5700-1" x="415.273" y="64.329" style="font-size:4px;fill:red">Propagate </tspan><tspan id="tspan5702-3" x="415.273" y="69.329" style="font-size:4px;fill:red">Quota Change</tspan></text><path style="fill:none;stroke:red;stroke-width:.40000001;stroke-linecap:round;stroke-linejoin:miter;stroke-miterlimit:4;stroke-opacity:1;stroke-dasharray:.40000002,.80000003;stroke-dashoffset:0;marker-end:url(#Arrow2Lend)" id="path5828" d="m 432.89285,77.07647 c 0,0 -25.26785,16.07143 -18.12499,-29.285711"/><path style="fill:none;stroke:#000;stroke-width:1.27259552;stroke-linecap:round;stroke-linejoin:miter;stroke-miterlimit:4;stroke-opacity:1;stroke-dasharray:1.27259556,2.54519113;stroke-dashoffset:0" id="path7044" d="M 170.22084,0.35562971 170.13629,122.22589"/><path style="fill:none;stroke:#000;stroke-width:1.27259552;stroke-linecap:round;stroke-linejoin:miter;stroke-miterlimit:4;stroke-opacity:1;stroke-dasharray:1.27259559,2.54519118;stroke-dashoffset:0" id="path7044-3" d="M 338.04227,0.99848634 337.95777,122.86876"/><text style="font-size:8px;font-style:normal;font-variant:normal;font-weight:700;font-stretch:normal;line-height:125%;letter-spacing:0;word-spacing:0;fill:navy;fill-opacity:1;stroke:none;font-family:Courier;-inkscape-font-specification:Courier Bold" id="text3171-1-7" x="291.703" y="114.369" xml:space="preserve"><tspan id="tspan3173-0-8" x="291.703" y="114.369">NewDir</tspan></text><path style="fill:none;stroke:#000;stroke-width:.3893843;stroke-linecap:butt;stroke-linejoin:miter;stroke-miterlimit:4;stroke-opacity:1;stroke-dasharray:none;marker-end:url(#marker9686-8-9-9-0)" id="path3133" d="m 253.92327,134.36218 230.36775,0"/><text style="font-size:12px;font-style:normal;font-variant:normal;font-weight:700;font-stretch:normal;line-height:125%;letter-spacing:0;word-spacing:0;fill:#000;fill-opacity:1;stroke:none;font-family:Courier;-inkscape-font-specification:Sans Bold" id="text3102" x="226.429" y="138.076" xml:space="preserve"><tspan id="tspan3104" x="226.429" y="138.076" style="font-size:10px;font-style:normal;font-variant:normal;font-weight:400;font-stretch:normal;font-family:Sans;-inkscape-font-specification:Sans">Time</tspan></text><path style="fill:none;stroke:#000;stroke-width:.37000001;stroke-linecap:butt;stroke-linejoin:miter;stroke-miterlimit:4;stroke-opacity:1;stroke-dasharray:none;marker-end:none" id="path3133-5" d="m 18.449481,134.29075 c 62.421602,0 124.843199,0 187.264809,0 6.63588,0 13.27177,0 19.90766,0"/></g></svg>